<?xml version="1.0" encoding="UTF-8"?>
<svg version="1.1" xmlns="http://www.w3.org/2000/svg" width="512" height="512">
<path d="M0 0 C3.60810099 0.01722048 7.21553831 0.00712416 10.82361603 -0.01071739 C13.65153872 -0.02164323 16.479308 -0.01807123 19.30723572 -0.01033401 C21.27225185 -0.00742151 23.23727449 -0.01636905 25.20227051 -0.02572632 C36.15423199 0.05945319 46.11173436 1.94703412 55.86914062 7.01611328 C56.54396484 7.3623877 57.21878906 7.70866211 57.9140625 8.06542969 C71.14239172 15.09809282 80.34471693 25.0998297 87.11914062 38.32861328 C87.44487061 38.96033447 87.77060059 39.59205566 88.10620117 40.24291992 C92.83199949 49.93664459 94.34525552 59.35406531 94.24414062 70.07861328 C94.23584229 71.22056152 94.22754395 72.36250977 94.21899414 73.5390625 C93.91303404 88.92417363 89.33530178 101.60023354 82.80664062 115.39111328 C83.34933594 115.81521484 83.89203125 116.23931641 84.45117188 116.67626953 C88.88276648 120.30937862 92.74032245 123.53153962 93.80664062 129.39111328 C94.55080927 137.2849528 94.97781369 144.95235462 89.80664062 151.39111328 C82.91903484 158.62381831 77.29242711 160.64490748 67.49414062 161.01611328 C66.65818359 161.05478516 65.82222656 161.09345703 64.9609375 161.13330078 C62.90984803 161.22706487 60.85827548 161.31015573 58.80664062 161.39111328 C58.38253906 162.29732422 57.9584375 163.20353516 57.52148438 164.13720703 C53.9809517 171.55395977 50.33400209 178.22775834 44.80664062 184.39111328 C44.12859375 185.15037109 43.45054687 185.90962891 42.75195312 186.69189453 C35.89902528 193.9472185 27.85473851 199.23387912 18.80664062 203.39111328 C19.35794793 209.52567739 19.35794793 209.52567739 22.80664062 214.39111328 C25.6238392 215.2962524 28.24634764 215.53309634 31.19335938 215.60205078 C60.08331463 216.48966189 84.36088615 224.08494883 109.96069336 237.52172852 C112.2010111 238.57684973 113.90119638 238.69108565 116.36914062 238.70361328 C117.51576172 238.72875 117.51576172 238.72875 118.68554688 238.75439453 C121.36938488 238.29473167 122.19520234 237.56092227 123.80664062 235.39111328 C127.05407689 225.22267679 127.44904947 208.25086557 122.97460938 198.54736328 C121.50777383 195.93017346 119.84076449 193.4808116 118.13867188 191.01220703 C115.48568095 187.15999178 114.11288325 183.16851416 112.80664062 178.70361328 C112.51430542 177.71312988 112.51430542 177.71312988 112.21606445 176.70263672 C110.23211213 169.70215808 109.56995083 163.32101528 109.49414062 156.07861328 C109.46513672 155.16660156 109.43613281 154.25458984 109.40625 153.31494141 C109.34878653 147.14866937 110.25191849 142.51354364 113.80664062 137.39111328 C114.33870117 136.99069824 114.87076172 136.5902832 115.41894531 136.17773438 C117.69763202 133.24398538 117.20628054 129.84910646 117.17773438 126.28564453 C117.19512908 124.64566862 117.21271331 123.0056947 117.23046875 121.36572266 C117.2405034 118.78975523 117.24414749 116.21392553 117.24243164 113.63793945 C117.24602882 111.14509693 117.2734826 108.6532992 117.30273438 106.16064453 C117.29455185 105.40201614 117.28636932 104.64338776 117.27793884 103.86177063 C117.36839795 97.2773192 119.41881896 92.11598334 123.77148438 87.14892578 C124.42246094 86.61009766 125.0734375 86.07126953 125.74414062 85.51611328 C126.39253906 84.96181641 127.0409375 84.40751953 127.70898438 83.83642578 C134.21021619 79.35699231 141.17804979 79.716476 148.80664062 80.39111328 C155.46623396 82.07196911 159.9921151 86.8548965 163.80664062 92.39111328 C165.87758801 96.57240107 166.04012141 100.02319789 166.00195312 104.66064453 C165.99770828 105.68214851 165.99770828 105.68214851 165.99337769 106.72428894 C165.98224587 108.88424783 165.95715519 111.04378122 165.93164062 113.20361328 C165.92160174 114.67431039 165.91247748 116.14501404 165.90429688 117.61572266 C165.88232976 121.20765614 165.84784883 124.79934313 165.80664062 128.39111328 C166.78890625 128.35969238 166.78890625 128.35969238 167.79101562 128.32763672 C170.79606391 128.24380945 173.80086526 128.19224433 176.80664062 128.14111328 C177.83660156 128.10759766 178.8665625 128.07408203 179.92773438 128.03955078 C187.76801315 127.93967462 193.0985679 129.1417046 199.04882812 134.35595703 C199.58765625 135.00693359 200.12648438 135.65791016 200.68164062 136.32861328 C201.2359375 136.97701172 201.79023438 137.62541016 202.36132812 138.29345703 C206.84076159 144.79468885 206.48127791 151.76252245 205.80664062 159.39111328 C204.13614368 166.00966445 199.36152683 170.64807473 193.80664062 174.39111328 C192.48144371 174.75545108 191.14841693 175.09358137 189.80664062 175.39111328 C189.81552307 176.3269072 189.82440552 177.26270111 189.83355713 178.22685242 C189.91505833 187.09656862 189.9748037 195.96620769 190.01388931 204.83621502 C190.03466001 209.39512062 190.06278237 213.9537211 190.10839844 218.51245117 C190.15223536 222.92156231 190.17585656 227.33038215 190.1861496 231.7396946 C190.19347372 233.41202179 190.20777362 235.08433518 190.22956085 236.75653648 C190.46721553 255.77353853 185.40453187 272.15035973 172.13647461 286.27832031 C161.4417273 297.07284898 146.37397086 304.34535373 131.10327148 304.61816406 C128.99264932 304.61767087 126.88200736 304.60689204 124.77148438 304.58642578 C123.28122742 304.58340454 123.28122742 304.58340454 121.76086426 304.58032227 C118.08857534 304.569945 114.4163528 304.54202318 110.74414062 304.51611328 C102.51476562 304.47486328 94.28539062 304.43361328 85.80664062 304.39111328 C85.80664062 325.84111328 85.80664062 347.29111328 85.80664062 369.39111328 C94.05664062 371.04111328 102.30664062 372.69111328 110.80664062 374.39111328 C128.34123734 379.67932499 142.24421437 388.60375508 151.17260742 405.02636719 C158.79290747 419.8468103 160.79526463 437.43527434 156.18164062 453.64111328 C155.44987498 455.58143961 154.6599458 457.5010822 153.80664062 459.39111328 C153.38253906 460.33857422 152.9584375 461.28603516 152.52148438 462.26220703 C149.01489461 469.30468954 144.33085588 474.8383245 138.80664062 480.39111328 C138.20335937 481.02919922 137.60007812 481.66728516 136.97851562 482.32470703 C126.92845952 492.1344357 112.34426464 496.71028518 98.58003235 496.65853882 C97.2359655 496.66533549 97.2359655 496.66533549 95.8647458 496.67226946 C92.87958518 496.68487105 89.894608 496.68329583 86.90942383 496.68164062 C84.76187405 496.68762858 82.61432643 496.69443474 80.46678162 496.70199585 C74.64424257 496.71963728 68.82176234 496.72435049 62.99919915 496.72562742 C59.35738724 496.72705079 55.71559019 496.73132396 52.07378197 496.73662186 C39.35687692 496.75511702 26.64001375 496.76329324 13.9230957 496.76171875 C2.08862351 496.76051797 -9.74566612 496.78160935 -21.58009213 496.81320608 C-31.75617727 496.83940228 -41.93220291 496.85008462 -52.10832149 496.84880793 C-58.17904222 496.84829922 -64.2496007 496.85393199 -70.3202877 496.87516403 C-76.03395633 496.89460228 -81.74730888 496.89463257 -87.460989 496.88013077 C-89.55025192 496.87804841 -91.63953491 496.88270911 -93.72876358 496.89485168 C-113.3638644 497.00151944 -129.18350255 493.7143021 -143.91601562 479.65673828 C-144.66753906 478.90908203 -145.4190625 478.16142578 -146.19335938 477.39111328 C-147.15048828 476.48619141 -147.15048828 476.48619141 -148.12695312 475.56298828 C-159.59490946 463.81407979 -162.60646921 447.88416021 -162.55908203 432.11669922 C-162.42164404 424.2007753 -161.48117597 417.67347341 -158.19335938 410.39111328 C-157.76925781 409.44365234 -157.34515625 408.49619141 -156.90820312 407.52001953 C-149.59090734 392.82428064 -137.13700102 382.67436606 -122.19335938 376.39111328 C-117.03665734 374.82621913 -111.83432775 373.64572164 -106.56835938 372.51611328 C-105.19434974 372.20760249 -103.82064893 371.89771294 -102.44726562 371.58642578 C-92.65605505 369.39111328 -92.65605505 369.39111328 -90.19335938 369.39111328 C-90.19335938 367.74111328 -90.19335938 366.09111328 -90.19335938 364.39111328 C-91.33804688 364.08173828 -91.33804688 364.08173828 -92.50585938 363.76611328 C-110.79091717 356.94795614 -123.82139176 343.78287934 -132.19335938 326.39111328 C-139.84946367 309.61820057 -141.17540382 289.404696 -135.50585938 271.76611328 C-127.70695938 251.711799 -115.15660476 236.87729951 -95.32226562 227.65673828 C-83.2502171 222.77366247 -70.33367448 221.11832771 -57.53955078 219.14086914 C-56.27804199 218.94243408 -55.0165332 218.74399902 -53.71679688 218.53955078 C-52.58161621 218.36601074 -51.44643555 218.1924707 -50.27685547 218.01367188 C-47.35460428 217.42366867 -44.8767373 216.68208964 -42.19335938 215.39111328 C-40.96401048 213.6192059 -40.96401048 213.6192059 -40.38085938 211.51611328 C-40.14753906 210.83806641 -39.91421875 210.16001953 -39.67382812 209.46142578 C-39.04264776 207.09592782 -39.04264776 207.09592782 -39.19335938 203.39111328 C-39.87140625 203.05080078 -40.54945313 202.71048828 -41.24804688 202.35986328 C-56.23724181 194.55385594 -71.33594596 182.12064834 -76.82666016 165.47070312 C-77.31076451 163.78544395 -77.75566778 162.08901834 -78.19335938 160.39111328 C-79.47210938 160.43751953 -80.75085938 160.48392578 -82.06835938 160.53173828 C-83.77666917 160.56928355 -85.48500446 160.60568073 -87.19335938 160.64111328 C-88.03253906 160.67462891 -88.87171875 160.70814453 -89.73632812 160.74267578 C-96.91707873 160.85400525 -102.00525262 159.18487234 -107.43554688 154.42626953 C-108.24378906 153.44980469 -108.24378906 153.44980469 -109.06835938 152.45361328 C-109.62265625 151.80521484 -110.17695313 151.15681641 -110.74804688 150.48876953 C-115.22493768 143.99122802 -114.87555443 137.01615423 -114.19335938 129.39111328 C-112.89201086 124.4428719 -110.43692763 121.40910698 -106.54101562 118.17236328 C-105.91332275 117.64707031 -105.28562988 117.12177734 -104.63891602 116.58056641 C-104.16188232 116.18804687 -103.68484863 115.79552734 -103.19335938 115.39111328 C-104.60854496 112.39041248 -106.02578371 109.39068562 -107.44335938 106.39111328 C-107.83910156 105.55193359 -108.23484375 104.71275391 -108.64257812 103.84814453 C-109.03574219 103.01669922 -109.42890625 102.18525391 -109.83398438 101.32861328 C-110.22392578 100.49974609 -110.61386719 99.67087891 -111.015625 98.81689453 C-111.78346675 97.23536973 -112.58311971 95.66878232 -113.41796875 94.12158203 C-116.23127792 88.90170719 -116.23127792 88.90170719 -116.0480957 86.43505859 C-114.90290527 83.69654552 -113.2772175 82.13754781 -111.15820312 80.06298828 C-110.34931641 79.26376953 -109.54042969 78.46455078 -108.70703125 77.64111328 C-107.85689453 76.81611328 -107.00675781 75.99111328 -106.13085938 75.14111328 C-104.84985352 73.88041016 -104.84985352 73.88041016 -103.54296875 72.59423828 C-101.43300526 70.51963731 -99.31636229 68.45235496 -97.19335938 66.39111328 C-98.34663815 62.93127694 -99.17624446 62.39742253 -102.06054688 60.31689453 C-103.25877075 59.44411865 -103.25877075 59.44411865 -104.48120117 58.55371094 C-105.33496338 57.94317871 -106.18872559 57.33264648 -107.06835938 56.70361328 C-107.92792236 56.08019043 -108.78748535 55.45676758 -109.6730957 54.81445312 C-111.38772573 53.57176183 -113.10457002 52.33211938 -114.82373047 51.09570312 C-117.85311676 48.91651756 -120.86679052 46.71642305 -123.88085938 44.51611328 C-125.31787871 43.47378362 -126.75514754 42.4317969 -128.19335938 41.39111328 C-126.80930263 38.07398177 -125.43147346 36.56450877 -122.40429688 34.65673828 C-121.63609619 34.16915039 -120.86789551 33.6815625 -120.07641602 33.17919922 C-119.24875732 32.67163086 -118.42109863 32.1640625 -117.56835938 31.64111328 C-116.71169678 31.1103418 -115.85503418 30.57957031 -114.97241211 30.03271484 C-107.26349813 25.32064028 -99.43963723 21.08114136 -91.19335938 17.39111328 C-90.44538086 17.0562793 -89.69740234 16.72144531 -88.92675781 16.37646484 C-79.39449951 12.18667735 -69.75576967 8.7629466 -59.69335938 6.07861328 C-58.84185303 5.84835449 -57.99034668 5.6180957 -57.11303711 5.38085938 C-54.1523872 4.63405345 -51.18622007 3.99699782 -48.19335938 3.39111328 C-47.555354 3.25874268 -46.91734863 3.12637207 -46.26000977 2.98999023 C-30.94093042 -0.07382563 -15.55482565 -0.07495044 0 0 Z M-87.75585938 34.57861328 C-89.141521 35.22092896 -89.141521 35.22092896 -90.55517578 35.8762207 C-91.40644043 36.28718994 -92.25770508 36.69815918 -93.13476562 37.12158203 C-93.89474854 37.48662842 -94.65473145 37.8516748 -95.43774414 38.2277832 C-97.5217049 39.34923962 -97.5217049 39.34923962 -98.19335938 42.39111328 C-97.40070679 42.97227905 -97.40070679 42.97227905 -96.59204102 43.56518555 C-94.14567415 45.36000613 -91.70076311 47.15680019 -89.25585938 48.95361328 C-88.42505859 49.56269531 -87.59425781 50.17177734 -86.73828125 50.79931641 C-81.15174372 54.90770393 -75.64472134 59.10501599 -70.19335938 63.39111328 C-73.58828207 67.52745587 -77.10933888 71.34784119 -80.97070312 75.05517578 C-81.81310547 75.86728516 -82.65550781 76.67939453 -83.5234375 77.51611328 C-85.27989445 79.20020684 -87.04575852 80.87453717 -88.8203125 82.53955078 C-89.65369141 83.34908203 -90.48707031 84.15861328 -91.34570312 84.99267578 C-92.10874756 85.71793457 -92.87179199 86.44319336 -93.65795898 87.19042969 C-95.45524021 89.28644074 -95.45524021 89.28644074 -95.06298828 91.8894043 C-94.22149281 94.31018028 -93.2924727 96.53510268 -92.12695312 98.81689453 C-91.72412109 99.61289063 -91.32128906 100.40888672 -90.90625 101.22900391 C-90.27493164 102.45393555 -90.27493164 102.45393555 -89.63085938 103.70361328 C-89.20611328 104.53957031 -88.78136719 105.37552734 -88.34375 106.23681641 C-87.29901148 108.29107755 -86.24876175 110.3423162 -85.19335938 112.39111328 C-84.20335937 112.39111328 -83.21335937 112.39111328 -82.19335938 112.39111328 C-82.16757813 111.47330078 -82.14179688 110.55548828 -82.11523438 109.60986328 C-81.47244378 95.70221216 -81.47244378 95.70221216 -77.19335938 90.39111328 C-72.7882283 86.40186833 -67.80396921 84.00409754 -62.51757812 81.40673828 C-61.59241898 80.94628113 -60.66725983 80.48582397 -59.71406555 80.01141357 C-56.77244321 78.54896648 -53.82674933 77.09494159 -50.88085938 75.64111328 C-48.87993344 74.64817746 -46.87927922 73.6546939 -44.87890625 72.66064453 C-39.98685347 70.23111396 -35.09143517 67.80847608 -30.19335938 65.39111328 C-30.90714894 61.73597198 -31.76111191 58.16835413 -32.75585938 54.57861328 C-33.23023438 52.86673828 -33.70460938 51.15486328 -34.19335938 49.39111328 C-26.27335937 48.40111328 -26.27335937 48.40111328 -18.19335938 47.39111328 C-17.49210937 49.20611328 -16.79085937 51.02111328 -16.06835938 52.89111328 C-11.29959004 64.2269309 -3.76425295 72.5934257 7.80664062 77.39111328 C8.46664062 77.39111328 9.12664062 77.39111328 9.80664062 77.39111328 C9.60167969 76.71306641 9.39671875 76.03501953 9.18554688 75.33642578 C7.34393812 68.97450462 6.28528863 62.99645572 5.80664062 56.39111328 C11.41664063 56.39111328 17.02664063 56.39111328 22.80664062 56.39111328 C22.80664062 58.70111328 22.80664062 61.01111328 22.80664062 63.39111328 C24.93079542 71.39957268 30.26821895 77.42871374 36.49414062 82.64111328 C40.50570524 84.76043044 44.5794175 86.11442345 48.90429688 87.46142578 C56.46893384 89.8845531 56.46893384 89.8845531 57.93164062 92.07861328 C58.36476563 93.22330078 58.36476563 93.22330078 58.80664062 94.39111328 C59.32226562 95.40173828 59.83789062 96.41236328 60.36914062 97.45361328 C62.42818236 102.21644718 62.53795368 107.26753113 62.80664062 112.39111328 C63.46664062 112.39111328 64.12664062 112.39111328 64.80664062 112.39111328 C74.24463511 93.46930881 81.1061789 74.55723932 75.24414062 53.26611328 C70.01386594 39.08014019 60.21020553 28.27638652 46.80664062 21.39111328 C34.15166399 16.41358969 21.68450586 16.18277604 8.30664062 16.20361328 C7.53308228 16.20454987 6.75952393 16.20548645 5.96252441 16.20645142 C-26.97183086 16.29254932 -57.7095442 20.55716903 -87.75585938 34.57861328 Z M-20.19335938 78.39111328 C-25.64012698 81.16143224 -31.08436658 83.93663702 -36.52636719 86.71630859 C-38.3762736 87.66034968 -40.22685208 88.60307507 -42.078125 89.54443359 C-44.74593975 90.90128991 -47.41126557 92.26293036 -50.07617188 93.62548828 C-50.89828156 94.04231873 -51.72039124 94.45914917 -52.56741333 94.88861084 C-54.10132032 95.67509276 -55.62806011 96.47577578 -57.14582825 97.29296875 C-58.9813544 98.27740946 -60.8490742 99.20126159 -62.7199707 100.11669922 C-65.43521674 102.61351415 -65.59922441 103.0359294 -65.92211914 106.51025391 C-65.94144566 108.1892253 -65.9268199 109.86880738 -65.88476562 111.54736328 C-65.88339096 112.44547729 -65.8820163 113.34359131 -65.88059998 114.2689209 C-65.87154017 116.17207708 -65.84790267 118.07521147 -65.81079102 119.97802734 C-65.7565681 122.85352892 -65.74925852 125.72609496 -65.75 128.60205078 C-65.63534013 148.56915455 -61.63241302 162.95205964 -47.19335938 177.39111328 C-46.31164062 178.27283203 -46.31164062 178.27283203 -45.41210938 179.17236328 C-35.78198608 188.07568482 -22.15266044 192.37412861 -9.19335938 192.39111328 C7.19347229 191.35157955 20.62788792 185.09047666 32.05664062 173.26611328 C44.7425215 158.10557392 46.28483545 140.97743325 45.99414062 122.07861328 C45.97905388 120.3553178 45.96537259 118.63200941 45.953125 116.90869141 C45.92046436 112.73583983 45.86890737 108.56362376 45.80664062 104.39111328 C44.70376709 103.92398926 43.60089355 103.45686523 42.46459961 102.97558594 C38.80664062 101.39111328 38.80664062 101.39111328 36.27929688 100.03955078 C30.8193461 97.15471455 26.07586097 96.02146481 19.93164062 95.82861328 C5.97795718 95.36804139 -6.26738555 90.45019189 -16.87158203 81.26757812 C-17.49553864 80.72853851 -18.11949524 80.1894989 -18.76235962 79.63412476 C-19.23458954 79.22393097 -19.70681946 78.81373718 -20.19335938 78.39111328 Z M136.49414062 99.20361328 C133.7612458 102.74625472 133.68606357 105.60204929 133.70898438 109.93408203 C133.71220703 111.00722656 133.71542969 112.08037109 133.71875 113.18603516 C133.72712891 114.30558594 133.73550781 115.42513672 133.74414062 116.57861328 C133.74865234 117.70976563 133.75316406 118.84091797 133.7578125 120.00634766 C133.76960551 122.80129204 133.78754105 125.59620928 133.80664062 128.39111328 C139.08664062 128.39111328 144.36664063 128.39111328 149.80664062 128.39111328 C149.88775412 124.51569051 149.94720113 120.64197446 149.99414062 116.76611328 C150.01927734 115.67169922 150.04441406 114.57728516 150.0703125 113.44970703 C150.17612632 105.49087571 150.17612632 105.49087571 146.80664062 98.39111328 C143.01132584 96.49345589 139.83342098 96.58633949 136.49414062 99.20361328 Z M-96.19335938 131.39111328 C-97.61377758 134.23194969 -97.5078821 136.24588606 -97.19335938 139.39111328 C-95.27017668 142.02658586 -93.90325093 143.14825564 -90.81835938 144.20361328 C-87.6147888 144.5354509 -87.6147888 144.5354509 -82.19335938 143.39111328 C-82.19335938 138.44111328 -82.19335938 133.49111328 -82.19335938 128.39111328 C-87.80925235 128.10063606 -91.2916187 128.28269236 -96.19335938 131.39111328 Z M62.80664062 128.39111328 C62.31164062 135.81611328 62.31164062 135.81611328 61.80664062 143.39111328 C67.57734296 144.48555683 70.68446837 144.76425111 75.80664062 141.39111328 C77.22705883 138.55027687 77.12116335 136.5363405 76.80664062 133.39111328 C74.57457632 130.54330709 73.25671064 129.54113662 69.80664062 128.39111328 C67.49664062 128.39111328 65.18664062 128.39111328 62.80664062 128.39111328 Z M156.80664062 144.39111328 C157.13664062 149.67111328 157.46664063 154.95111328 157.80664062 160.39111328 C161.6820634 160.47222678 165.55577945 160.53167379 169.43164062 160.57861328 C170.52605469 160.60375 171.62046875 160.62888672 172.74804688 160.65478516 C180.7068782 160.76059897 180.7068782 160.76059897 187.80664062 157.39111328 C189.22705883 154.55027687 189.12116335 152.5363405 188.80664062 149.39111328 C186.57457632 146.54330709 185.25671064 145.54113662 181.80664062 144.39111328 C179.88757145 144.30844842 177.96574589 144.28370666 176.04492188 144.29345703 C174.3675293 144.29829102 174.3675293 144.29829102 172.65625 144.30322266 C171.48900391 144.31160156 170.32175781 144.31998047 169.11914062 144.32861328 C167.94029297 144.333125 166.76144531 144.33763672 165.546875 144.34228516 C162.63344196 144.35408043 159.72003496 144.37201601 156.80664062 144.39111328 Z M126.80664062 149.39111328 C124.11205135 164.23116744 130.16649606 178.99843785 137.80664062 191.39111328 C138.96332564 192.77532394 138.96332564 192.77532394 142.13305664 192.50463867 C143.60889619 192.50447957 145.08474131 192.49878642 146.56054688 192.48876953 C147.3359935 192.48735458 148.11144012 192.48593964 148.91038513 192.48448181 C151.39667557 192.47886673 153.88287723 192.46631175 156.36914062 192.45361328 C158.05077995 192.44860022 159.73242069 192.44403698 161.4140625 192.43994141 C165.54498392 192.4297416 169.67571244 192.41016933 173.80664062 192.39111328 C173.80664062 187.11111328 173.80664062 181.83111328 173.80664062 176.39111328 C166.21664062 176.39111328 158.62664062 176.39111328 150.80664062 176.39111328 C150.47664063 177.71111328 150.14664062 179.03111328 149.80664062 180.39111328 C144.85664063 177.75111328 139.90664063 175.11111328 134.80664062 172.39111328 C135.79664063 170.45236328 136.78664063 168.51361328 137.80664062 166.51611328 C140.48092652 160.70492805 142.22623743 155.767061 140.80664062 149.39111328 C139.38619481 146.63502033 139.38619481 146.63502033 136.80664062 145.39111328 C131.85295622 144.56549921 129.85463647 145.4842542 126.80664062 149.39111328 Z M-21.19335938 208.39111328 C-22.18335938 211.36111328 -23.17335938 214.33111328 -24.19335938 217.39111328 C-24.85735859 218.8496219 -25.55266873 220.29582772 -26.31835938 221.70361328 C-27.68984754 224.23927164 -28.80823396 226.51129486 -29.19335938 229.39111328 C-25.90354166 234.48502457 -22.05698644 237.67163121 -16.19335938 239.39111328 C-8.83588066 240.36154789 -2.24109446 239.96891275 3.80664062 235.39111328 C6.62754376 232.69009853 8.5552638 230.14524375 9.80664062 226.39111328 C8.52939678 224.15143922 6.99923698 222.19003952 5.44726562 220.13330078 C3.80664062 217.39111328 3.80664062 217.39111328 0.80664062 208.39111328 C-6.45335937 208.39111328 -13.71335937 208.39111328 -21.19335938 208.39111328 Z M141.80664062 208.39111328 C141.67603034 217.81348581 141.67603034 217.81348581 141.59887695 227.23632812 C141.38228757 236.42741335 140.32199646 244.06327222 133.45507812 250.64501953 C132.70484375 251.07685547 131.95460938 251.50869141 131.18164062 251.95361328 C130.42625 252.40865234 129.67085937 252.86369141 128.89257812 253.33251953 C122.27727582 256.68972351 113.30472714 256.43270559 106.15820312 254.77783203 C103.61043703 253.79089875 101.23439572 252.6469693 98.80664062 251.39111328 C97.57031386 250.76612314 96.33327573 250.14253908 95.09570312 249.52001953 C94.09506836 249.01583496 94.09506836 249.01583496 93.07421875 248.50146484 C92.38779297 248.15567383 91.70136719 247.80988281 90.99414062 247.45361328 C90.30255859 247.10395508 89.61097656 246.75429687 88.8984375 246.39404297 C70.54451151 237.18267711 52.14908928 233.70654451 31.80664062 232.39111328 C30.10894531 232.22675781 30.10894531 232.22675781 28.37695312 232.05908203 C25.66520641 232.11661254 25.66520641 232.11661254 24.15429688 234.33251953 C23.73019531 235.19748047 23.30609375 236.06244141 22.86914062 236.95361328 C18.02434828 245.81695431 12.17361062 250.59411707 2.80664062 254.39111328 C-6.40873552 257.03441188 -18.60149355 256.76875701 -27.23242188 252.51220703 C-27.87953125 252.14224609 -28.52664063 251.77228516 -29.19335938 251.39111328 C-30.22460938 250.83423828 -31.25585938 250.27736328 -32.31835938 249.70361328 C-37.35640706 245.65127058 -41.60990641 240.76629272 -45.19335938 235.39111328 C-68.20346473 236.3620038 -91.7541252 240.7099118 -108.24414062 257.96923828 C-119.69850033 272.20110805 -122.79987824 287.47824245 -121.19335938 305.39111328 C-118.4859457 320.38131331 -109.54663165 333.12615907 -97.44335938 342.20361328 C-85.37120198 350.11488799 -72.40069497 352.39111328 -58.19335938 352.39111328 C-58.19335938 341.83111328 -58.19335938 331.27111328 -58.19335938 320.39111328 C-63.14335937 320.06111328 -68.09335938 319.73111328 -73.19335938 319.39111328 C-80.14662366 316.9146082 -84.97561188 312.95645779 -88.24414062 306.22802734 C-89.40217983 302.76701512 -89.51734835 299.76955986 -89.60742188 296.12158203 C-89.62678802 295.44057938 -89.64615417 294.75957672 -89.66610718 294.05793762 C-89.72554069 291.89828735 -89.77214137 289.73858271 -89.81835938 287.57861328 C-89.85657265 286.10788785 -89.89562631 284.63718399 -89.93554688 283.16650391 C-90.03278356 279.57482396 -90.11263487 275.98335361 -90.19335938 272.39111328 C-85.24335938 272.39111328 -80.29335937 272.39111328 -75.19335938 272.39111328 C-73.33824488 268.7267525 -71.48560005 265.0613025 -69.63916016 261.39257812 C-69.01006507 260.14445607 -68.37953696 258.89705523 -67.74755859 257.65039062 C-66.8403234 255.86013217 -65.93863341 254.067067 -65.03710938 252.27392578 C-64.49248047 251.1951416 -63.94785156 250.11635742 -63.38671875 249.00488281 C-62.05491738 246.5667737 -62.05491738 246.5667737 -62.19335938 244.39111328 C-56.75688934 247.35905493 -51.80386747 250.72325456 -46.81835938 254.39111328 C-45.218657 255.55724377 -43.61838303 256.7225905 -42.01757812 257.88720703 C-41.21239746 258.47356934 -40.4072168 259.05993164 -39.57763672 259.6640625 C-35.26415861 262.78852944 -30.9132465 265.85984518 -26.54638672 268.90917969 C-22.82751569 271.50969772 -19.15473065 274.15494285 -15.52539062 276.87939453 C-14.758479 277.44585693 -13.99156738 278.01231934 -13.20141602 278.59594727 C-11.72737068 279.68622126 -10.26368479 280.79068284 -8.81225586 281.91088867 C-5.13955251 284.76357437 -5.13955251 284.76357437 -0.72460938 285.07861328 C2.93564985 282.63844046 6.52289373 280.13684918 10.05664062 277.51611328 C11.67582143 276.33038283 13.29562762 275.14550597 14.91601562 273.96142578 C15.73392578 273.36233398 16.55183594 272.76324219 17.39453125 272.14599609 C21.00348257 269.52037443 24.6528326 266.9537641 28.30664062 264.39111328 C32.81965786 261.22413029 37.31219495 258.03338892 41.76757812 254.78564453 C42.58806641 254.18816406 43.40855469 253.59068359 44.25390625 252.97509766 C45.84100779 251.81701149 47.42575031 250.65568364 49.0078125 249.49072266 C49.72259766 248.96929687 50.43738281 248.44787109 51.17382812 247.91064453 C51.80401855 247.44762939 52.43420898 246.98461426 53.08349609 246.50756836 C54.80664062 245.39111328 54.80664062 245.39111328 57.80664062 244.39111328 C58.22115479 245.70909912 58.22115479 245.70909912 58.64404297 247.05371094 C59.71250733 250.12089024 60.94404108 252.89527697 62.40820312 255.78955078 C62.89804687 256.76279297 63.38789063 257.73603516 63.89257812 258.73876953 C64.40046875 259.73779297 64.90835938 260.73681641 65.43164062 261.76611328 C65.94726562 262.78833984 66.46289062 263.81056641 66.99414062 264.86376953 C68.26135935 267.37473997 69.53228619 269.8837589 70.80664062 272.39111328 C72.55696906 272.24927632 74.30689597 272.10247899 76.05664062 271.95361328 C77.03117188 271.87240234 78.00570312 271.79119141 79.00976562 271.70751953 C82.03435684 271.42764402 82.03435684 271.42764402 85.80664062 270.39111328 C85.80664062 276.33111328 85.80664062 282.27111328 85.80664062 288.39111328 C91.26543767 288.43739606 96.72353504 288.47710757 102.18237305 288.50097656 C104.03363369 288.51094254 105.88487897 288.52452021 107.73608398 288.54199219 C127.79702635 288.72638582 144.84518438 287.97823144 159.97070312 273.28955078 C173.44099641 259.01204891 173.97582203 242.44499051 173.86914062 223.82861328 C173.83820313 216.18705078 173.83820313 216.18705078 173.80664062 208.39111328 C163.24664062 208.39111328 152.68664062 208.39111328 141.80664062 208.39111328 Z M-55.19335938 269.39111328 C-57.45221262 272.64508836 -57.45221262 272.64508836 -58.19335938 276.39111328 C-56.299505 276.89855751 -54.40317271 277.39675902 -52.50585938 277.89111328 C-51.45011719 278.16955078 -50.394375 278.44798828 -49.30664062 278.73486328 C-46.48193265 279.33028479 -44.0649923 279.5189782 -41.19335938 279.39111328 C-45.61778529 275.68030445 -50.36739869 272.54533595 -55.19335938 269.39111328 Z M49.80664062 269.39111328 C47.63713452 270.86625823 45.47100356 272.34595718 43.30664062 273.82861328 C42.37658203 274.45993164 42.37658203 274.45993164 41.42773438 275.10400391 C39.86953665 276.17419465 38.33586011 277.27990846 36.80664062 278.39111328 C36.80664062 278.72111328 36.80664062 279.05111328 36.80664062 279.39111328 C42.72156334 278.93886567 48.15863951 278.23285278 53.80664062 276.39111328 C53.20480314 274.37065886 52.53357966 272.37000289 51.80664062 270.39111328 C51.14664063 270.06111328 50.48664063 269.73111328 49.80664062 269.39111328 Z M-74.19335938 290.39111328 C-74.07563873 291.839867 -73.94568697 293.28763052 -73.81054688 294.73486328 C-73.7394873 295.54117187 -73.66842773 296.34748047 -73.59521484 297.17822266 C-73.03000665 300.29064492 -71.73969657 301.59369879 -69.19335938 303.39111328 C-66.34946455 304.33907822 -64.52619518 304.53052646 -61.57348633 304.56469727 C-60.17106438 304.58493202 -60.17106438 304.58493202 -58.74031067 304.60557556 C-57.73094955 304.61601395 -56.72158844 304.62645233 -55.68164062 304.63720703 C-53.54036069 304.67015808 -51.39908475 304.7033695 -49.2578125 304.73681641 C-45.88520168 304.78412463 -42.51260556 304.8285345 -39.13989258 304.86791992 C-35.88280047 304.90782999 -32.6260447 304.95934106 -29.36914062 305.01220703 C-27.87028069 305.02482826 -27.87028069 305.02482826 -26.34114075 305.03770447 C-20.63377938 305.13761088 -15.67237286 305.77086815 -10.19335938 307.39111328 C-10.19335938 306.07111328 -10.19335938 304.75111328 -10.19335938 303.39111328 C-31.46266125 298.71280201 -52.80479593 294.48407669 -74.19335938 290.39111328 Z M63.23291016 291.47680664 C62.04142365 291.71382797 60.84993713 291.9508493 59.62234497 292.1950531 C58.31136547 292.45694325 57.00040191 292.71891318 55.68945312 292.98095703 C54.35286019 293.24763335 53.0162614 293.51428031 51.67965698 293.78089905 C48.87337673 294.34095545 46.0672575 294.9018111 43.26123047 295.46313477 C39.66465182 296.1824708 36.06755197 296.89916282 32.4703083 297.61516476 C29.70769077 298.16546472 26.94542456 298.7175121 24.18325424 299.27005196 C22.21201313 299.66394905 20.24042299 300.05609816 18.26882935 300.44822693 C16.4721431 300.80848717 16.4721431 300.80848717 14.63916016 301.17602539 C13.05483688 301.49246254 13.05483688 301.49246254 11.43850708 301.81529236 C8.71775121 302.36176745 8.71775121 302.36176745 5.80664062 303.39111328 C5.80664062 329.46111328 5.80664062 355.53111328 5.80664062 382.39111328 C15.80976563 380.43173828 25.81289063 378.47236328 36.11914062 376.45361328 C39.27645752 375.83623291 42.43377441 375.21885254 45.68676758 374.58276367 C48.1811831 374.09325564 50.67556986 373.60360103 53.16992188 373.11376953 C53.81817429 372.98731552 54.4664267 372.86086151 55.13432312 372.73057556 C57.04539425 372.35762653 58.95593535 371.98196469 60.86645508 371.60620117 C61.94345169 371.39524307 63.0204483 371.18428497 64.13008118 370.9669342 C66.88901401 370.42455818 66.88901401 370.42455818 69.80664062 369.39111328 C69.80664062 343.32111328 69.80664062 317.25111328 69.80664062 290.39111328 C67.61296416 290.39111328 65.36885048 291.05116259 63.23291016 291.47680664 Z M-42.19335938 320.39111328 C-42.19335938 330.95111328 -42.19335938 341.51111328 -42.19335938 352.39111328 C-28.05483355 353.40878466 -28.05483355 353.40878466 -15.58007812 347.92626953 C-11.49103752 343.21523402 -10.83757162 339.97907994 -10.91601562 333.93017578 C-11.32712381 330.16650926 -12.67622298 328.17321141 -15.19335938 325.39111328 C-23.77278189 318.63709981 -30.71919428 320.39111328 -42.19335938 320.39111328 Z M-14.95449829 366.3711853 C-18.16756211 367.38298964 -20.66360462 367.66446503 -24.01513672 367.70996094 C-25.13584564 367.72983063 -26.25655457 367.74970032 -27.41122437 367.77017212 C-28.60518829 367.78172333 -29.79915222 367.79327454 -31.02929688 367.80517578 C-32.88103012 367.83422501 -32.88103012 367.83422501 -34.77017212 367.86386108 C-38.7028315 367.92351425 -42.63552037 367.96998591 -46.56835938 368.01611328 C-49.2389639 368.05323871 -51.90951302 368.09335853 -54.58007812 368.13330078 C-61.11773051 368.22920424 -67.6554564 368.31429357 -74.19335938 368.39111328 C-70.99795291 370.52138426 -68.98784098 370.99589417 -65.25317383 371.71972656 C-63.42161491 372.0798735 -63.42161491 372.0798735 -61.55305481 372.44729614 C-60.22094454 372.70215133 -58.88880579 372.95685772 -57.55664062 373.21142578 C-56.19317771 373.4770178 -54.82983168 373.74321049 -53.46659851 374.00997925 C-49.88223889 374.70972211 -46.29635034 375.40129727 -42.71008301 376.09118652 C-39.04925369 376.79691543 -35.38992824 377.51035308 -31.73046875 378.22314453 C-24.55287839 379.62001953 -17.37353081 381.00755446 -10.19335938 382.39111328 C-10.19335938 376.78111328 -10.19335938 371.17111328 -10.19335938 365.39111328 C-12.36754796 365.2796117 -12.36754796 365.2796117 -14.95449829 366.3711853 Z M-97.87963867 388.05224609 C-99.85518457 388.51016206 -101.83508318 388.94336105 -103.81640625 389.37548828 C-118.88933692 392.85793334 -130.98101658 398.5420276 -139.61523438 411.64892578 C-146.02616788 422.78871618 -147.25833934 435.67433946 -144.31054688 448.11767578 C-139.44291378 461.88243958 -130.43898553 470.38055034 -117.84179688 477.09423828 C-106.26408324 481.20965683 -93.87847851 480.65939594 -81.76757812 480.58642578 C-79.92527929 480.582687 -78.08297843 480.57984412 -76.24067688 480.57785034 C-71.43541798 480.57028196 -66.63028358 480.55069337 -61.82507324 480.52844238 C-56.03622255 480.50420117 -50.2473298 480.49517056 -44.45844269 480.48353577 C-35.70332883 480.46426382 -26.94848712 480.42589419 -18.19335938 480.39111328 C-18.19335938 466.86111328 -18.19335938 453.33111328 -18.19335938 439.39111328 C-23.41705485 437.43222748 -28.43367458 435.66388755 -33.78686523 434.23046875 C-34.49843781 434.03656555 -35.21001038 433.84266235 -35.94314575 433.6428833 C-37.47094928 433.22708417 -38.999227 432.81302412 -40.52793694 432.40056992 C-42.94518903 431.74832084 -45.36110688 431.09132217 -47.77674866 430.43313599 C-52.89363576 429.03987744 -58.0121628 427.65270662 -63.13085938 426.26611328 C-69.08842317 424.65182 -75.04529638 423.03504682 -81.00070381 421.41281509 C-83.38480439 420.76466207 -85.76999457 420.12063378 -88.15525818 419.47677612 C-89.60542969 419.0823666 -91.0555515 418.68777433 -92.50561523 418.29296875 C-93.77610214 417.94894012 -95.04658905 417.6049115 -96.35557556 417.25045776 C-99.19335938 416.39111328 -99.19335938 416.39111328 -100.19335938 415.39111328 C-99.97679687 414.64345703 -99.76023438 413.89580078 -99.53710938 413.12548828 C-99.25867188 412.14064453 -98.98023438 411.15580078 -98.69335938 410.14111328 C-98.41492188 409.16658203 -98.13648438 408.19205078 -97.84960938 407.18798828 C-97.04107072 404.22087915 -97.04107072 404.22087915 -97.19335938 400.39111328 C-88.88896805 402.61547238 -80.5849996 404.84140143 -72.28151798 407.06915379 C-68.42281662 408.10436128 -64.56398961 409.13909454 -60.70483398 410.17260742 C-56.23315476 411.37023233 -51.76196123 412.56965904 -47.29101562 413.77001953 C-46.55993214 413.96615467 -45.82884865 414.16228981 -45.07561111 414.36436844 C-34.21175704 417.28091594 -23.37045897 420.26719396 -12.5615387 423.38246155 C-11.62462692 423.64949387 -10.68771515 423.91652618 -9.72241211 424.19165039 C-8.91392319 424.42484482 -8.10543427 424.65803925 -7.27244568 424.89830017 C-5.06295592 425.50643464 -5.06295592 425.50643464 -2.19335938 425.39111328 C-2.19335938 427.70111328 -2.19335938 430.01111328 -2.19335938 432.39111328 C18.24146181 436.18749061 34.40615882 426.67268157 52.26000977 418.01138306 C59.85938732 414.32853934 67.56137568 410.92524119 75.32739258 407.6109314 C77.27738967 406.7785987 79.22500023 405.9409253 81.171875 405.10131836 C84.04876258 403.8613572 86.92697047 402.62459412 89.80664062 401.39111328 C92.22539714 404.51473112 93.89819284 407.51788047 95.49414062 411.14111328 C95.93113281 412.12595703 96.368125 413.11080078 96.81835938 414.12548828 C97.14449219 414.87314453 97.470625 415.62080078 97.80664062 416.39111328 C97.26866348 416.55859573 96.73068634 416.72607819 96.17640686 416.89863586 C90.32218592 418.77799073 84.76741832 421.06966123 79.17773438 423.62158203 C78.30262711 424.016866 77.42751984 424.41214996 76.52589417 424.81941223 C73.76341758 426.06834901 71.00375472 427.32336629 68.24414062 428.57861328 C66.35825646 429.43253437 64.47219038 430.28605385 62.5859375 431.13916016 C57.99072375 433.21851017 53.39802113 435.30331362 48.80664062 437.39111328 C49.21366211 437.860896 49.62068359 438.33067871 50.04003906 438.81469727 C50.57661133 439.43675049 51.11318359 440.05880371 51.66601562 440.69970703 C52.19678711 441.31386475 52.72755859 441.92802246 53.27441406 442.56079102 C58.98977086 449.38807431 61.15789821 455.40607433 61.05664062 464.26611328 C61.064375 464.93513672 61.07210937 465.60416016 61.08007812 466.29345703 C61.06085889 471.28084878 60.07110247 475.57498278 58.80664062 480.39111328 C63.98037359 480.44114566 69.15396082 480.47712702 74.32788086 480.50097656 C76.08213764 480.51093572 77.83637826 480.52450794 79.59057617 480.54199219 C98.80393034 480.72847636 114.99229485 479.80218885 129.61523438 465.81298828 C133.06534748 462.00002905 135.56590026 458.00570731 137.80664062 453.39111328 C138.14566406 452.73111328 138.4846875 452.07111328 138.83398438 451.39111328 C143.10478371 441.31438858 142.14170834 427.09561312 138.18554688 417.12939453 C131.57341538 403.99878779 121.61137602 396.03356871 107.80664062 391.39111328 C103.27471176 390.15510146 98.71046993 389.13055863 94.11914062 388.14111328 C92.93513672 387.87298828 91.75113281 387.60486328 90.53125 387.32861328 C82.03682356 385.46317061 75.12844437 384.8936051 66.55566406 386.84741211 C65.12754104 387.1672307 63.6993775 387.48686845 62.2711792 387.80635071 C61.52238243 387.97647486 60.77358566 388.14659901 60.00209808 388.32187843 C55.95764351 389.23300181 51.90282962 390.09615546 47.84960938 390.96728516 C42.72723233 392.07013428 37.60908264 393.18582095 32.50244141 394.35961914 C12.22503304 399.00167661 -4.52438059 401.87171039 -25.02893066 396.22866821 C-30.47038744 394.78843385 -35.99784207 393.78615388 -41.52148438 392.71533203 C-43.68088723 392.27858305 -45.83974947 391.8391521 -47.99804688 391.39697266 C-49.05733398 391.18065186 -50.11662109 390.96433105 -51.20800781 390.74145508 C-53.4010344 390.29215934 -55.59373346 389.84126251 -57.78613281 389.38891602 C-61.03004302 388.72081481 -64.27558521 388.06119182 -67.52148438 387.40283203 C-68.49434387 387.19977951 -69.46720337 386.99672699 -70.46954346 386.78752136 C-80.28980621 384.8084505 -88.16355964 385.78123313 -97.87963867 388.05224609 Z M-2.19335938 448.39111328 C-2.19335938 458.95111328 -2.19335938 469.51111328 -2.19335938 480.39111328 C2.90101563 480.45298828 7.99539063 480.51486328 13.24414062 480.57861328 C15.62717407 480.6195813 15.62717407 480.6195813 18.05834961 480.66137695 C30.02503851 481.04427948 30.02503851 481.04427948 40.40991211 475.93847656 C44.50280753 471.2210229 45.16253683 467.98744314 45.08398438 461.93017578 C44.67287619 458.16650926 43.32377702 456.17321141 40.80664062 453.39111328 C34.71900157 448.59871658 29.90345318 448.26323753 22.31835938 448.29345703 C20.38802856 448.29720337 20.38802856 448.29720337 18.41870117 448.30102539 C15.9810437 448.3146814 15.9810437 448.3146814 13.49414062 448.32861328 C8.31726563 448.34923828 3.14039063 448.36986328 -2.19335938 448.39111328 Z " fill="#000000" transform="translate(298.193359375,7.60888671875)"/>
<path d="M0 0 C1.43520996 0.00858032 1.43520996 0.00858032 2.89941406 0.01733398 C15.88158962 0.34090785 26.15177541 4.27556443 36.3125 12.5 C37.364375 13.263125 38.41625 14.02625 39.5 14.8125 C49.12730526 24.01192503 56.03084421 37.37119953 56.78125 50.76171875 C56.8153658 52.57002071 56.82519799 54.37892083 56.8125 56.1875 C56.80677979 57.14430664 56.80105957 58.10111328 56.79516602 59.08691406 C56.47299022 72.01299759 52.58317963 82.42448986 44.3125 92.5 C43.55324219 93.47066406 42.79398437 94.44132812 42.01171875 95.44140625 C39.2417356 98.74891927 36.06534088 101.29571839 32.625 103.875 C32.04427734 104.32488281 31.46355469 104.77476562 30.86523438 105.23828125 C26.57741261 108.5 26.57741261 108.5 24.3125 108.5 C24.35890625 109.77875 24.4053125 111.0575 24.453125 112.375 C24.49067027 114.08330979 24.52706745 115.79164508 24.5625 117.5 C24.59601563 118.33917969 24.62953125 119.17835938 24.6640625 120.04296875 C24.77539197 127.22371935 23.10625906 132.31189324 18.34765625 137.7421875 C17.69667969 138.28101563 17.04570313 138.81984375 16.375 139.375 C15.40240234 140.20644531 15.40240234 140.20644531 14.41015625 141.0546875 C7.90892443 145.53412097 0.94109083 145.17463728 -6.6875 144.5 C-13.34709333 142.81914417 -17.87297447 138.03621678 -21.6875 132.5 C-24.31821467 127.75779066 -23.91465211 122.9561913 -23.8125 117.6875 C-23.80347656 116.80384766 -23.79445313 115.92019531 -23.78515625 115.00976562 C-23.76169637 112.83972641 -23.72582865 110.66982753 -23.6875 108.5 C-24.2865918 108.21116943 -24.88568359 107.92233887 -25.50292969 107.62475586 C-39.50410417 100.41605997 -49.45357425 87.78036653 -54.26171875 72.921875 C-55.84889478 67.50625002 -56.22697636 62.43513286 -56.1875 56.8125 C-56.18177979 55.85569336 -56.17605957 54.89888672 -56.17016602 53.91308594 C-55.84659215 40.93091038 -51.91193557 30.66072459 -43.6875 20.5 C-42.924375 19.448125 -42.16125 18.39625 -41.375 17.3125 C-30.45967046 5.88948072 -15.65216846 -0.10989347 0 0 Z M-31 31.875 C-38.72756452 41.38419745 -39.72422169 52.71380648 -38.6875 64.5 C-36.31171236 76.14994662 -28.74308043 84.30197453 -19.6875 91.5 C-19.06488281 92.00917969 -18.44226563 92.51835937 -17.80078125 93.04296875 C-14.22852542 95.80933606 -12.15092032 96.75092482 -7.6875 96.5 C-6.26743552 86.30972532 -6.26743552 86.30972532 -9.55078125 77.2109375 C-11.87281042 75.78959722 -14.22090436 74.64596585 -16.6875 73.5 C-22.63655312 67.24586723 -23.14491056 61.32672958 -22.99609375 52.94921875 C-22.41089005 46.4082711 -20.04297257 42.49937235 -15.25 38.125 C-8.53394572 32.54646767 -1.06045666 32.75089063 7.3125 33.5 C13.51844371 35.13211433 17.84868117 39.19395906 21.3125 44.5 C24.51980803 50.95855178 24.47633954 59.07462212 22.66015625 65.98046875 C19.73675998 72.46714631 14.54033684 76.38608158 8.3125 79.5 C8.3125 85.11 8.3125 90.72 8.3125 96.5 C13.77889582 96.5 15.62052229 95.30185857 19.625 92.0625 C20.19532959 91.6094751 20.76565918 91.1564502 21.35327148 90.68969727 C30.04852033 83.62888444 37.15235804 75.820744 39.3125 64.5 C40.15851636 52.0593988 39.20590056 41.37526183 31.00390625 31.34375 C23.78585477 23.47557379 15.68094373 18.00108703 4.80859375 17.26171875 C-10.10089545 16.8513996 -20.66568337 20.73977383 -31 31.875 Z M-5.0625 51.125 C-7.17456506 54.21186432 -7.29945145 55.8282913 -6.6875 59.5 C-5.1875 62 -5.1875 62 -2.6875 63.5 C0.9842087 64.11195145 2.60063568 63.98706506 5.6875 61.875 C7.79956506 58.78813568 7.92445145 57.1717087 7.3125 53.5 C5.8125 51 5.8125 51 3.3125 49.5 C-0.3592087 48.88804855 -1.97563568 49.01293494 -5.0625 51.125 Z M-7.6875 112.5 C-7.8517691 120.28569784 -7.8517691 120.28569784 -4.6875 126.5 C-1.84666359 127.92041821 0.16727278 127.81452272 3.3125 127.5 C6.16030619 125.26793569 7.16247666 123.95007001 8.3125 120.5 C8.3125 117.86 8.3125 115.22 8.3125 112.5 C3.0325 112.5 -2.2475 112.5 -7.6875 112.5 Z " fill="#000000" transform="translate(79.6875,119.5)"/>
<path d="M0 0 C1.078125 1.42578125 1.078125 1.42578125 2.25 3.3125 C4.75989961 6.90638523 6.71666582 8.62610036 11 10 C17.8362583 10.90546468 22.49092107 10.18689999 28 6 C29.59124405 4.06406511 30.75410684 2.19277196 32 0 C37.68502535 1.64566523 42.76681636 4.29032784 48 7 C44.20589655 15.85290804 38.70242564 22.23421298 29.859375 26.30859375 C21.71099374 29.33855905 10.69663013 29.42505678 2.5 26.4375 C-5.90249965 22.44843451 -12.68598748 15.67406756 -16 7 C-13.71070947 5.82845707 -11.41881638 4.66261926 -9.125 3.5 C-8.47402344 3.16613281 -7.82304687 2.83226562 -7.15234375 2.48828125 C-2.2265625 0 -2.2265625 0 0 0 Z " fill="#000000" transform="translate(272,156)"/>
<path d="M0 0 C3.65999294 3.28651367 6.03191049 7.07173405 8.4765625 11.28515625 C8.88788422 11.98265488 9.29920593 12.6801535 9.72299194 13.39878845 C11.02939241 15.61671518 12.32741336 17.83940752 13.625 20.0625 C14.93152497 22.28806618 16.23973319 24.5126344 17.5484314 26.73692322 C18.3603331 28.11824256 19.17063931 29.50050123 19.97915649 30.88380432 C21.59198669 33.63905774 23.22843233 36.34264849 25 39 C25.00390625 40.953125 25.00390625 40.953125 24 43 C21.27734375 44.921875 21.27734375 44.921875 17.9375 46.75 C16.83277344 47.36359375 15.72804688 47.9771875 14.58984375 48.609375 C13.30787109 49.29773438 13.30787109 49.29773438 12 50 C8.34000706 46.71348633 5.96808951 42.92826595 3.5234375 38.71484375 C3.11211578 38.01734512 2.70079407 37.3198465 2.27700806 36.60121155 C0.97060759 34.38328482 -0.32741336 32.16059248 -1.625 29.9375 C-2.93152497 27.71193382 -4.23973319 25.4873656 -5.5484314 23.26307678 C-6.3603331 21.88175744 -7.17063931 20.49949877 -7.97915649 19.11619568 C-9.59198669 16.36094226 -11.22843233 13.65735151 -13 11 C-13 10.01 -13 9.02 -13 8 C-10.85224966 6.45704199 -8.78165246 5.1240944 -6.5 3.8125 C-5.87996094 3.44447266 -5.25992187 3.07644531 -4.62109375 2.69726562 C-3.0865212 1.7883265 -1.5439744 0.8928753 0 0 Z " fill="#000000" transform="translate(22,75)"/>
<path d="M0 0 C4.06225548 0.57823096 6.84762346 1.89117737 10.3125 4.0625 C11.19550781 4.61035156 12.07851562 5.15820312 12.98828125 5.72265625 C13.65214844 6.14417969 14.31601563 6.56570312 15 7 C14.41977891 11.44990895 12.7293855 14.49292742 10.39453125 18.296875 C10.03284348 18.88994446 9.6711557 19.48301392 9.29850769 20.09405518 C8.14341535 21.98370714 6.97795635 23.86672685 5.8125 25.75 C5.04818516 26.99960696 4.28450729 28.24960376 3.52148438 29.5 C-0.5144187 36.09298702 -4.63877443 42.61585387 -9 49 C-10.77178053 48.043419 -12.54239076 47.08467012 -14.3125 46.125 C-15.29863281 45.59132812 -16.28476563 45.05765625 -17.30078125 44.5078125 C-20 43 -20 43 -23 41 C-22.42135215 36.53103421 -20.70969651 33.48317442 -18.359375 29.66796875 C-17.99531555 29.07252762 -17.6312561 28.47708649 -17.25616455 27.86360168 C-16.09438387 25.96720025 -14.92238427 24.07736027 -13.75 22.1875 C-12.97718757 20.92945209 -12.20504567 19.67099202 -11.43359375 18.41210938 C-7.65474809 12.2546316 -3.83935148 6.11992626 0 0 Z " fill="#000000" transform="translate(136,76)"/>
<path d="M0 0 C5.28 0 10.56 0 16 0 C16 15.84 16 31.68 16 48 C10.72 48 5.44 48 0 48 C0 32.16 0 16.32 0 0 Z " fill="#000000" transform="translate(72,56)"/>
<path d="M0 0 C2.12890625 0.484375 2.12890625 0.484375 4.69140625 2.609375 C6.38310394 5.99277038 6.75086556 7.75261914 6.12890625 11.484375 C4.69140625 14.359375 4.69140625 14.359375 2.12890625 16.484375 C-1.01513516 17.19971653 -3.72705234 17.19971653 -6.87109375 16.484375 C-9.93971731 13.93966278 -10.71933038 12.39495519 -11.37109375 8.484375 C-10.2071041 1.5004371 -6.65313004 -0.39458432 0 0 Z " fill="#000000" transform="translate(322.87109375,119.515625)"/>
<path d="M0 0 C2.12890625 0.484375 2.12890625 0.484375 4.69140625 2.609375 C6.38310394 5.99277038 6.75086556 7.75261914 6.12890625 11.484375 C4.69140625 14.359375 4.69140625 14.359375 2.12890625 16.484375 C-1.01513516 17.19971653 -3.72705234 17.19971653 -6.87109375 16.484375 C-9.93971731 13.93966278 -10.71933038 12.39495519 -11.37109375 8.484375 C-10.2071041 1.5004371 -6.65313004 -0.39458432 0 0 Z " fill="#000000" transform="translate(258.87109375,119.515625)"/>
</svg>
