<?xml version="1.0" encoding="UTF-8"?>
<svg version="1.1" xmlns="http://www.w3.org/2000/svg" width="512" height="512">
<path d="M0 0 C4.37558019 4.02156885 8.60052755 8.18371121 12.75 12.4375 C13.44222656 12.0765625 14.13445312 11.715625 14.84765625 11.34375 C23.84765614 7.07497535 32.61909424 5.66519886 42.421875 8.1015625 C51.17059673 11.57088319 56.88285597 17.6109503 60.83984375 26.0078125 C64.0631487 34.61251498 63.3005237 43.09111965 59.75 51.4375 C56.82694336 56.32606025 53.40700767 60.1285735 48.75 63.4375 C47.41492096 64.43516815 46.08130837 65.43480572 44.75 66.4375 C45.07613281 67.44425781 45.40226562 68.45101562 45.73828125 69.48828125 C54.63182999 97.69713389 56.18940054 128.66898615 48.75 157.4375 C48.56276367 158.16662598 48.37552734 158.89575195 48.18261719 159.64697266 C42.5642871 180.73754338 32.43376021 202.66266364 17.5703125 218.8046875 C14.0604165 223.88123236 13.46108767 229.29088222 13.82421875 235.3828125 C16.24867457 247.31890298 29.65138142 256.73773823 38.40730286 264.37863159 C42.64184785 268.11268479 44.57969235 270.22272314 45.01742554 275.91525269 C45.03535484 277.32345428 45.04228979 278.73182209 45.04052734 280.14013672 C45.04724457 280.91136871 45.05396179 281.68260071 45.06088257 282.47720337 C45.07986297 285.02393049 45.08378677 287.57039407 45.0859375 290.1171875 C45.09236544 291.89071765 45.0990938 293.66424674 45.10610962 295.43777466 C45.11808251 299.15499327 45.12179044 302.87211894 45.12060547 306.58935547 C45.12040229 311.34643203 45.1477033 316.10291112 45.18214989 320.85984612 C45.20441638 324.52306847 45.20844309 328.18614699 45.20738602 331.84943008 C45.2097424 333.60287663 45.21856804 335.35632711 45.23405075 337.10970688 C45.25370599 339.565585 45.24787528 342.02017415 45.23583984 344.47607422 C45.24707886 345.19627747 45.25831787 345.91648071 45.26989746 346.6585083 C45.19280691 352.86693548 42.74572414 356.29052874 38.63671875 360.7109375 C37.91097656 361.40445312 37.18523437 362.09796875 36.4375 362.8125 C33.67658904 365.45940566 31.09272744 368.17195978 28.60546875 371.07324219 C24.75440406 375.49038312 20.69020173 379.65884156 16.55078125 383.8046875 C15.41457588 384.94588547 15.41457588 384.94588547 14.25541687 386.11013794 C12.66759699 387.70298415 11.07845301 389.29451147 9.48803711 390.88476562 C7.05359035 393.32141772 4.62727723 395.76598338 2.20117188 398.2109375 C0.65153101 399.76350941 -0.89858255 401.31560969 -2.44921875 402.8671875 C-3.1721965 403.59735077 -3.89517426 404.32751404 -4.64006042 405.07980347 C-5.31789078 405.75455719 -5.99572113 406.42931091 -6.6940918 407.12451172 C-7.28586716 407.7177121 -7.87764252 408.31091248 -8.48735046 408.92208862 C-13.79813107 413.48795222 -19.50935161 412.83941484 -26.1875 412.875 C-27.27224609 412.90787109 -28.35699219 412.94074219 -29.47460938 412.97460938 C-37.43806097 413.02844955 -37.43806097 413.02844955 -41.46484375 410.09765625 C-43.25 407.4375 -43.25 407.4375 -43.875 404.4375 C-43.01526706 400.3107819 -41.58574247 398.99019289 -38.25 396.4375 C-36.07637106 396.16163651 -34.09091784 396.28477656 -31.90631104 396.43663025 C-25.42936484 396.8672596 -20.09734347 396.53068862 -14.81445312 392.50341797 C-10.38553981 388.59910945 -6.44507509 384.25815309 -2.5 379.875 C-1.10846683 378.40152603 0.28735192 376.93208711 1.6875 375.46679688 C7.26129491 369.59214512 12.67700821 363.59599229 17.91342163 357.41838074 C19.75 355.4375 19.75 355.4375 21.90908813 353.68891907 C26.69917525 349.71413658 28.30600756 346.73972468 29.07080078 340.51611328 C29.27459695 337.76380292 29.37081541 335.01631939 29.4453125 332.2578125 C29.50552634 330.76869522 29.5660437 329.27959018 29.62684631 327.79049683 C29.79377984 323.0479224 29.84065901 318.30758293 29.875 313.5625 C29.88569645 312.76358337 29.8963929 311.96466675 29.90741348 311.14154053 C30.75017091 286.61221743 30.75017091 286.61221743 20.33648682 265.29885864 C15.63732696 260.55929434 10.26231844 256.69405686 4.47729492 253.39453125 C0.29989695 250.39694624 -0.93273104 246.99500219 -1.9375 242.0625 C-2.040625 241.19625 -2.14375 240.33 -2.25 239.4375 C-3.08917969 240.14712891 -3.08917969 240.14712891 -3.9453125 240.87109375 C-29.1673323 261.6731776 -62.21624683 276.55339891 -95.31640625 276.60546875 C-96.0723558 276.60879715 -96.82830536 276.61212555 -97.60716248 276.61555481 C-99.20139972 276.62059165 -100.79564739 276.62296414 -102.38989258 276.62280273 C-104.78159862 276.62497197 -107.17282947 276.64311453 -109.56445312 276.66210938 C-118.99132258 276.69545094 -127.94513697 276.09824257 -137.25 274.4375 C-141.93459889 280.78760773 -146.46858409 287.19985837 -150.81640625 293.78515625 C-153.29127147 297.51817537 -155.82053197 301.2133306 -158.35009766 304.90942383 C-160.28655039 307.74094473 -162.21599229 310.57714681 -164.14453125 313.4140625 C-166.95539444 317.54788448 -169.79052492 321.66387891 -172.63671875 325.7734375 C-174.07089517 327.86939309 -175.50450355 329.96573749 -176.9375 332.0625 C-177.60845703 333.0205957 -178.27941406 333.97869141 -178.97070312 334.96582031 C-182.85375558 340.68748425 -185.44909347 346.04518004 -187.36352539 352.69970703 C-190.81706266 363.36563018 -198.77543391 371.75276035 -208.25 377.4375 C-206.9320435 379.04042006 -205.59372816 380.62819546 -204.19790649 382.16378784 C-202.25 384.4375 -202.25 384.4375 -200.46884155 387.21340942 C-197.11376169 391.66475193 -194.12904028 394.78089504 -188.54837799 396.05364227 C-180.81244963 396.95571809 -173.03370624 396.75517279 -165.26011705 396.59010458 C-161.82994057 396.53036346 -158.39993112 396.5377089 -154.96932983 396.53884888 C-148.48316564 396.53189405 -141.99868133 396.47344862 -135.51305807 396.39238274 C-123.88681858 396.24786616 -112.26023557 396.17343215 -100.63315523 396.14539826 C-97.22388605 396.13526422 -93.81563195 396.11196161 -90.40672684 396.05987167 C-86.61297943 396.00328081 -82.81995574 395.9754982 -79.02587891 395.95263672 C-77.9016452 395.92672958 -76.7774115 395.90082245 -75.61911011 395.87413025 C-68.02486423 395.86965678 -68.02486423 395.86965678 -64.05307007 398.78030396 C-62.25 401.4375 -62.25 401.4375 -61.625 404.4375 C-62.51141794 408.69230612 -63.71604782 409.86468987 -67.25 412.4375 C-71.34857887 413.19236433 -75.40678306 413.10983841 -79.56420898 413.06860352 C-80.81351196 413.07575882 -82.06281494 413.08291412 -83.34997559 413.09028625 C-86.76994089 413.10428709 -90.18839163 413.09587591 -93.60823321 413.07619596 C-97.19155427 413.05978719 -100.77482672 413.0686256 -104.35816956 413.07371521 C-110.37635746 413.0782343 -116.39423439 413.06237957 -122.41235352 413.03442383 C-129.36244782 413.00238699 -136.31198086 413.00238242 -143.26211494 413.0196386 C-149.95613138 413.03552435 -156.64994276 413.02875612 -163.34395027 413.01170158 C-166.1887466 413.00484287 -169.03337798 413.00585134 -171.87817192 413.01324654 C-175.85446293 413.02235779 -179.83018149 412.99833004 -183.80639648 412.97094727 C-184.98321487 412.97747314 -186.16003326 412.98399902 -187.37251282 412.99072266 C-195.70549728 412.89312692 -199.07256159 411.62776215 -204.97216797 405.7043457 C-205.89900099 404.67713196 -206.82219647 403.64662728 -207.7421875 402.61328125 C-208.78696885 401.4895862 -209.83391661 400.36790225 -210.8828125 399.24804688 C-212.50706747 397.50717999 -214.11627792 395.75988711 -215.69140625 393.97436523 C-223.12113975 385.54091692 -223.12113975 385.54091692 -233.53067017 382.3457489 C-235.53150392 382.30302776 -237.53376042 382.36412293 -239.53393555 382.4309082 C-250.72008955 382.45075093 -259.67381019 375.7809269 -267.40234375 368.375 C-277.24996608 358.10559869 -280.78452435 345.73283016 -280.4921875 331.765625 C-279.5682028 319.06828686 -274.38706237 307.53011489 -264.953125 298.83984375 C-258.39206128 293.4375 -258.39206128 293.4375 -255.25 293.4375 C-255.27094727 292.83276855 -255.29189453 292.22803711 -255.31347656 291.60498047 C-255.39708945 288.84099229 -255.44880054 286.07727087 -255.5 283.3125 C-255.53351563 282.36117188 -255.56703125 281.40984375 -255.6015625 280.4296875 C-255.62089844 279.0375 -255.62089844 279.0375 -255.640625 277.6171875 C-255.66157227 276.76882324 -255.68251953 275.92045898 -255.70410156 275.04638672 C-254.628552 268.86718103 -249.93874284 264.99499634 -245.390625 261.0859375 C-231.0216706 249.33786628 -231.0216706 249.33786628 -224.09228516 233.04638672 C-224.38167799 225.30698354 -226.30617851 219.5414413 -231.83984375 213.94921875 C-257.84800614 186.84508841 -263.96923546 144.16648818 -263.42739868 108.51594543 C-262.62420591 70.78336923 -244.79451015 35.44415383 -219.25 8.4375 C-218.44304687 7.56609375 -217.63609375 6.6946875 -216.8046875 5.796875 C-194.66133108 -17.33797499 -165.35280064 -31.18925464 -134.25 -37.5625 C-133.06019531 -37.80871094 -131.87039062 -38.05492188 -130.64453125 -38.30859375 C-83.67671615 -46.14557095 -35.3572306 -31.37483324 0 0 Z M-212.52636719 24.51123047 C-239.99060854 55.20427073 -248.76561529 93.23295257 -247.25 133.4375 C-244.64863108 167.98856775 -225.98748888 201.81820513 -200.56640625 224.87109375 C-188.20863927 236.09842126 -188.20863927 236.09842126 -174.06640625 242.41015625 C-169.90540665 240.97313974 -166.70995286 238.47336347 -163.1875 235.875 C-161.64928224 234.76445401 -160.11021781 233.65507981 -158.5703125 232.546875 C-157.82426758 232.00740234 -157.07822266 231.46792969 -156.30957031 230.91210938 C-153.76504396 229.0902816 -151.17562828 227.34676965 -148.5625 225.625 C-141.7047054 221.10400606 -134.93639593 216.4530303 -128.1652832 211.8034668 C-124.0717495 209.00170763 -119.9709179 206.21054231 -115.80859375 203.51171875 C-115.20587646 203.11944092 -114.60315918 202.72716309 -113.98217773 202.32299805 C-110.96805767 200.78216458 -108.52655997 200.94292491 -105.25 201.4375 C-102.29232246 202.48911868 -100.80087406 203.32065945 -99.39453125 206.171875 C-98.24268608 209.774009 -98.13155743 211.99757046 -99.125 215.6875 C-101.61111682 220.47911831 -104.76074442 224.90834833 -107.81591797 229.34814453 C-109.55434559 231.88090987 -111.27906153 234.42280936 -113.00390625 236.96484375 C-115.65242723 240.86369961 -118.30124034 244.76234166 -120.95703125 248.65625 C-121.79971558 249.8927832 -121.79971558 249.8927832 -122.65942383 251.15429688 C-123.71568285 252.6705109 -124.8150713 254.15760804 -125.95581055 255.61132812 C-127.442737 257.33641826 -127.442737 257.33641826 -127.25 259.4375 C-94.41212522 267.04548287 -57.33452453 256.65101068 -29.25 239.4375 C-15.15981887 230.11340229 -2.40483465 218.97727953 7.75 205.4375 C8.48863281 204.45265625 9.22726562 203.4678125 9.98828125 202.453125 C32.23181024 171.56573759 41.49080008 133.9505858 35.92553711 96.15087891 C35.33826402 92.87368178 34.57454416 89.66253158 33.75 86.4375 C33.58371094 85.76041992 33.41742188 85.08333984 33.24609375 84.38574219 C27.40467618 60.98761957 16.11710383 40.11092406 -0.25 22.4375 C-0.74870605 21.89496582 -1.24741211 21.35243164 -1.76123047 20.79345703 C-25.62455336 -4.87712288 -59.76715305 -22.15579556 -95.08569336 -23.68530273 C-141.33188107 -24.89813619 -180.83906143 -9.57094697 -212.52636719 24.51123047 Z M23.75 25.4375 C25.3603454 29.96387627 27.69026666 33.86285433 30.1875 37.9375 C30.78014648 38.91396484 30.78014648 38.91396484 31.38476562 39.91015625 C32.15204079 41.17405378 32.9207007 42.43711198 33.69091797 43.69921875 C35.0552721 45.93854596 36.40406619 48.18706405 37.75 50.4375 C42.22749808 48.44750086 44.13162428 45.95975415 46.08203125 41.62109375 C47.19499716 37.98280167 47.03372074 35.00830942 45.75 31.4375 C43.5106715 27.68869822 40.81968719 25.07741092 36.75 23.4375 C34.52615205 23.12412792 34.52615205 23.12412792 32.25 23.1875 C31.4971875 23.18234375 30.744375 23.1771875 29.96875 23.171875 C27.5203279 23.46499596 25.87695946 24.21933231 23.75 25.4375 Z M-131.25 232.4375 C-131.70213867 232.75912109 -132.15427734 233.08074219 -132.62011719 233.41210938 C-140.61744848 239.09495705 -148.6247869 244.74187695 -156.8125 250.1484375 C-162.32980899 253.80533681 -167.78103919 257.56085979 -173.24707031 261.29370117 C-178.48852342 264.87276631 -183.7330265 268.44719466 -188.984375 272.01171875 C-189.54486038 272.39228928 -190.10534576 272.7728598 -190.68281555 273.16496277 C-193.4086137 275.01575494 -196.13490606 276.86580573 -198.86206055 278.71459961 C-204.03713774 282.22861349 -209.18050939 285.77263618 -214.25 289.4375 C-211.8600612 291.92721586 -209.61031494 293.42615352 -206.5625 295.0625 C-197.4904119 300.431695 -192.39108842 307.90105118 -188.25 317.4375 C-183.87608883 313.39203271 -180.67483111 308.94361505 -177.375 304 C-176.21882401 302.28901249 -175.06257095 300.57807705 -173.90625 298.8671875 C-173.30683594 297.97612305 -172.70742187 297.08505859 -172.08984375 296.16699219 C-169.03803298 291.6394916 -165.95437811 287.1337731 -162.875 282.625 C-161.61175179 280.77229043 -160.34873277 278.91942457 -159.0859375 277.06640625 C-158.45526367 276.14102051 -157.82458984 275.21563477 -157.17480469 274.26220703 C-155.23347798 271.41325345 -153.29250736 268.56405749 -151.3515625 265.71484375 C-144.00917907 254.93855238 -136.64923236 244.17484758 -129.25 233.4375 C-130.24 232.9425 -130.24 232.9425 -131.25 232.4375 Z M-209.25 238.4375 C-209.28996094 239.04335938 -209.32992187 239.64921875 -209.37109375 240.2734375 C-210.672804 250.71926049 -217.78736796 256.11955393 -225.0703125 262.9765625 C-225.92955322 263.80099854 -226.78879395 264.62543457 -227.67407227 265.47485352 C-229.41168207 267.13785881 -231.16975781 268.77977993 -232.94897461 270.39819336 C-237.47606268 274.54340164 -237.47606268 274.54340164 -239.80419922 280.03076172 C-239.86859761 282.77373612 -239.86859761 282.77373612 -239.25 286.4375 C-235.38080755 285.06701681 -232.45381304 283.28563597 -229.1875 280.8125 C-224.54483013 277.36734418 -219.82022564 274.11764893 -214.99609375 270.93359375 C-209.79608632 267.48629734 -204.65267807 263.95492899 -199.5 260.4375 C-198.49799561 259.75357178 -197.49599121 259.06964355 -196.46362305 258.36499023 C-194.05874571 256.72298499 -191.65418929 255.08051244 -189.25 253.4375 C-193.32228742 250.17345283 -197.40570012 246.92386568 -201.5 243.6875 C-202.13679688 243.18089844 -202.77359375 242.67429687 -203.4296875 242.15234375 C-206.06214132 239.60712831 -206.06214132 239.60712831 -209.25 238.4375 Z M-257.25 314.4375 C-262.77202612 322.37629073 -265.33732077 330.77870251 -264.25 340.4375 C-262.25057522 349.83077079 -257.09355328 357.39196311 -249.16796875 362.87890625 C-247.22234415 363.91887522 -245.33334769 364.7166617 -243.25 365.4375 C-242.62609375 365.67082031 -242.0021875 365.90414062 -241.359375 366.14453125 C-233.32034201 368.67715343 -225.62059844 367.36866701 -218.0625 363.9375 C-209.28508967 359.14464689 -203.8669552 352.75543928 -200.87109375 343.1953125 C-198.9006663 334.44611891 -200.07660568 325.76089048 -204.69140625 318.01953125 C-209.95971026 310.72213568 -216.53953889 305.82881914 -225.25 303.4375 C-238.05617665 302.13260522 -248.56024372 304.58652907 -257.25 314.4375 Z " fill="#000000" transform="translate(361.25,69.5625)"/>
<path d="M0 0 C1.27520468 -0.00445784 2.55040937 -0.00891569 3.86425662 -0.01350862 C5.29270984 -0.01341931 6.72116305 -0.01322944 8.14961624 -0.01294994 C9.6567441 -0.01624753 11.16387107 -0.01997287 12.6709969 -0.02409142 C16.82787187 -0.03413152 20.9847324 -0.03783144 25.14161777 -0.04048073 C29.61890975 -0.04437784 34.09619023 -0.05395657 38.57347488 -0.0626936 C49.39367346 -0.08247475 60.21387301 -0.09252627 71.03408515 -0.10142139 C76.1258722 -0.10580155 81.21765821 -0.11116906 86.30944443 -0.11641026 C103.2294671 -0.13342412 120.14948912 -0.14791918 137.06951904 -0.155159 C141.46236802 -0.15706898 145.85521699 -0.1589893 150.24806595 -0.16094494 C151.33992609 -0.16142868 152.43178623 -0.16191242 153.55673304 -0.16241082 C171.25146775 -0.17071439 188.94613493 -0.19605612 206.64084014 -0.22852562 C224.79571303 -0.2615687 242.95055156 -0.27960526 261.10545468 -0.28280324 C271.30359536 -0.28497088 281.50163756 -0.29375662 291.69974899 -0.31926441 C300.38348823 -0.34093386 309.06710508 -0.34904038 317.75086829 -0.33929763 C322.18300438 -0.33474201 326.61488775 -0.33671213 331.04698944 -0.35605907 C335.10349539 -0.37361386 339.15956283 -0.37275602 343.21607295 -0.35716178 C344.68448696 -0.35477396 346.15293074 -0.35916983 347.62129912 -0.37099043 C349.61616163 -0.38605618 351.61117362 -0.37407821 353.60604858 -0.36076355 C355.26873657 -0.36222876 355.26873657 -0.36222876 356.96501422 -0.36372358 C361.94503508 0.43887243 365.04792034 3.01859309 368.36720657 6.69672108 C370.72263284 10.09900346 371.18016783 12.65895881 371.19172096 16.69326401 C371.19933278 18.10407365 371.19933278 18.10407365 371.20709836 19.54338449 C371.20759612 20.57858258 371.20809388 21.61378067 371.20860672 22.6803484 C371.21298897 23.77856499 371.21737123 24.87678159 371.22188628 26.00827748 C371.2352957 29.70708003 371.24145789 33.40585876 371.24757767 37.10468006 C371.25547673 39.74884694 371.26374028 42.39301075 371.27235794 45.03717518 C371.29687449 52.98409267 371.31150569 60.9310164 371.32441801 68.87796006 C371.32812975 71.12165427 371.33210297 73.36534786 371.33617067 75.60904145 C371.3614012 89.53705495 371.38345784 103.46506943 371.39589882 117.39310074 C371.39882858 120.61873789 371.40179024 123.84437502 371.40480423 127.07001209 C371.40555028 127.87174172 371.40629633 128.67347135 371.40706499 129.49949581 C371.41972857 142.49762104 371.45296605 155.4956098 371.49460606 168.49367117 C371.53698822 181.83245277 371.56058932 195.17116439 371.56581938 208.51001316 C371.56923717 216.00186647 371.58103572 223.49350626 371.61392212 230.98529339 C371.64187249 237.36307218 371.65294408 243.7405937 371.64172666 250.118429 C371.6365274 253.3737848 371.64221389 256.62848641 371.6641922 259.88378811 C371.68671042 263.41001839 371.67866835 266.93487532 371.66270828 270.46111012 C371.67659037 271.49407748 371.69047246 272.52704485 371.70477521 273.59131426 C371.62743628 280.49090051 371.62743628 280.49090051 368.70811272 283.77004051 C365.46598183 285.43689877 363.65093319 285.74634476 360.05470657 285.13422108 C357.75195101 283.26712197 356.37646787 281.77774367 355.05470657 279.13422108 C354.96170651 277.68546876 354.9309681 276.23249102 354.93165874 274.78075695 C354.92966787 273.86035248 354.927677 272.93994801 354.9256258 271.99165249 C354.92853847 270.97444811 354.93145113 269.95724373 354.93445206 268.90921497 C354.93359604 267.8361359 354.93274002 266.76305683 354.93185806 265.65746021 C354.93019415 262.02648766 354.93574062 258.39556056 354.94118118 254.76459217 C354.9414873 252.13111043 354.94139886 249.49763146 354.94081593 246.86415005 C354.94028332 240.50772273 354.94490981 234.15130949 354.95131725 227.79488579 C354.9585045 220.44551343 354.9593113 213.09614604 354.96010208 205.74676991 C354.96535692 186.33425139 354.97931797 166.92173602 354.99220657 147.50922108 C355.01283157 104.15547108 355.03345657 60.80172108 355.05470657 16.13422108 C237.57470657 16.13422108 120.09470657 16.13422108 -0.94529343 16.13422108 C-0.94529343 174.53422108 -0.94529343 332.93422108 -0.94529343 496.13422108 C116.53470657 496.13422108 234.01470657 496.13422108 355.05470657 496.13422108 C354.93589788 435.1465106 354.93589788 435.1465106 354.7844429 374.15887928 C354.7708931 362.37482166 354.7708931 362.37482166 354.7683754 356.86168385 C354.76557559 353.00351781 354.75431393 349.14547507 354.73797989 345.28734303 C354.7174308 340.36859058 354.71122786 335.45001791 354.71548975 330.53122652 C354.71459832 328.72445686 354.70863272 326.91768103 354.69706118 325.1109482 C354.68216811 322.67266135 354.68572533 320.23507547 354.69394302 317.79677296 C354.68083603 316.73335068 354.68083603 316.73335068 354.66746426 315.64844513 C354.70679106 311.31536455 355.4017524 308.58372794 358.05470657 305.13422108 C360.90795095 303.70759889 362.88925206 303.8238824 366.05470657 304.13422108 C368.71466351 305.67106628 368.71466351 305.67106628 371.05470657 308.13422108 C371.55583343 310.91114279 371.72786484 313.08118794 371.68289566 315.85719776 C371.68999005 316.63971855 371.69708444 317.42223935 371.7043938 318.22847289 C371.72201177 320.85355946 371.70385046 323.47717274 371.68581009 326.10223866 C371.6909476 327.98307947 371.69822761 329.86391548 371.70749283 331.74474049 C371.72604026 336.85656143 371.71304559 341.96786217 371.69340253 347.07966161 C371.67703509 352.42823264 371.68582661 357.77677021 371.69092178 363.12535572 C371.69544604 372.11122425 371.67955517 381.09688485 371.6516304 390.08270741 C371.61960629 400.46762462 371.61958188 410.85216617 371.63684517 421.23710996 C371.65271962 431.22708421 371.64596886 441.2169209 371.62890816 451.20688915 C371.62204017 455.45754825 371.62306766 459.70809701 371.63045311 463.95875454 C371.63812445 468.96819059 371.62596186 473.97720029 371.5986042 478.98656368 C371.59172711 480.8235418 371.59161514 482.66055979 371.59881973 484.49753666 C371.60753296 487.0089287 371.5915275 489.51901071 371.56937027 492.03029346 C371.58173142 493.11620902 371.58173142 493.11620902 371.59434229 494.22406226 C371.50554909 499.6916735 370.05094683 502.71842729 367.05470657 507.13422108 C362.54455738 511.21483225 360.12522211 512.25872956 354.10941315 512.26844215 C352.83420846 512.2729 351.55900378 512.27735784 350.24515653 512.28195077 C348.81670331 512.28186147 347.3882501 512.2816716 345.95979691 512.2813921 C344.45266905 512.28468968 342.94554208 512.28841503 341.43841624 512.29253358 C337.28154128 512.30257368 333.12468075 512.30627359 328.96779537 512.30892289 C324.4905034 512.31281999 320.01322292 512.32239872 315.53593826 512.33113575 C304.71573968 512.35091691 293.89554014 512.36096843 283.07532799 512.36986354 C277.98354094 512.37424371 272.89175494 512.37961121 267.79996872 512.38485241 C250.87994604 512.40186628 233.95992402 512.41636134 217.0398941 512.42360115 C212.64704513 512.42551114 208.25419616 512.42743146 203.8613472 512.42938709 C202.76948706 512.42987083 201.67762692 512.43035457 200.5526801 512.43085297 C182.85794539 512.43915654 165.16327821 512.46449827 147.468573 512.49696777 C129.31370012 512.53001086 111.15886159 512.54804742 93.00395846 512.55124539 C82.80581778 512.55341303 72.60777558 512.56219877 62.40966415 512.58770657 C53.72592492 512.60937601 45.04230807 512.61748254 36.35854486 512.60773978 C31.92640877 512.60318416 27.4945254 512.60515428 23.06242371 512.62450123 C19.00591775 512.64205601 14.94985031 512.64119818 10.8933402 512.62560394 C9.42492618 512.62321612 7.95648241 512.62761198 6.48811403 512.63943259 C4.49325152 512.65449833 2.49823953 512.64252037 0.50336456 512.6292057 C-0.6050941 512.63018251 -1.71355276 512.63115932 -2.85560107 512.63216573 C-7.83562193 511.82956972 -10.9385072 509.24984906 -14.25779343 505.57172108 C-17.26911662 501.22203202 -17.08836956 497.25132831 -17.07672119 492.16056061 C-17.07877383 491.3349703 -17.08082646 490.50937998 -17.08294129 489.65877178 C-17.08863473 486.8683215 -17.08715117 484.0779202 -17.08573532 481.2874651 C-17.08831761 479.27624893 -17.09133039 477.26503327 -17.09473872 475.25381833 C-17.10282791 469.70820948 -17.10459936 464.16261356 -17.10533619 458.61699951 C-17.1071834 452.643463 -17.11472902 446.66993326 -17.12147141 440.69640064 C-17.13577786 426.94454031 -17.14158288 413.19268177 -17.14616335 399.44081582 C-17.14849827 392.64738029 -17.15210079 385.8539456 -17.15585873 379.06051073 C-17.16869458 355.81260915 -17.17941408 332.56470803 -17.18286133 309.31680298 C-17.18308296 307.85712666 -17.18330475 306.39745034 -17.18352668 304.93777402 C-17.18374732 303.47454416 -17.1839678 302.0113143 -17.18418813 300.54808444 C-17.18463068 297.61252256 -17.1850778 294.67696069 -17.1855278 291.74139881 C-17.18563719 291.01354879 -17.18574658 290.28569877 -17.18585929 289.53579269 C-17.18949089 265.92888336 -17.20541463 242.32200472 -17.22871817 218.71510715 C-17.25330268 193.76501079 -17.26703351 168.81493199 -17.26822925 143.86482316 C-17.2684007 141.12704487 -17.26861613 138.38926659 -17.26886368 135.6514883 C-17.26891945 134.97735491 -17.26897522 134.30322151 -17.26903267 133.60865983 C-17.27018428 122.75047451 -17.28121553 111.89232064 -17.29575073 101.03414594 C-17.3101023 90.12469597 -17.31310736 79.21528834 -17.30531076 68.30583163 C-17.30139361 62.39327485 -17.30238563 56.48082408 -17.3163681 50.56828022 C-17.32904324 45.15923753 -17.32796598 39.75038123 -17.31577739 34.34133903 C-17.31380927 32.38103706 -17.31694982 30.42072217 -17.32562175 28.46043839 C-17.33664129 25.80186545 -17.32927813 23.14395882 -17.31723022 20.48540497 C-17.32482542 19.71910402 -17.33242061 18.95280307 -17.34024596 18.16328087 C-17.2867304 12.71680689 -16.17956975 8.52768248 -12.41013718 4.48968983 C-7.80203001 0.96584317 -5.76924637 0.00931451 0 0 Z " fill="#000000" transform="translate(78.94529342651367,-0.13422107696533203)"/>
<path d="M0 0 C3.21784169 2.64590933 6.22734555 5.37851756 9.0625 8.4375 C9.60519531 9.00984375 10.14789063 9.5821875 10.70703125 10.171875 C17.90016951 18.00753759 24.79634808 27.75975424 25.5625 38.6875 C25.0625 42.4375 25.0625 42.4375 22.9375 44.9375 C19.57212644 46.69334708 17.80234509 47.07406938 14.0625 46.4375 C10.03436793 43.23440703 8.34518757 39.24337599 6.25 34.6875 C3.23597253 28.42397416 0.16235538 23.25403008 -4.9375 18.4375 C-5.51757812 17.83808594 -6.09765625 17.23867187 -6.6953125 16.62109375 C-16.16062651 7.45280842 -29.2393962 3.02030495 -42.25 3.125 C-43.36411255 3.13345947 -43.36411255 3.13345947 -44.50073242 3.14208984 C-58.70584223 3.45354455 -71.45027005 9.20025923 -81.6875 19.02734375 C-93.28394857 31.44923397 -97.47096312 45.09996655 -97.22265625 61.7734375 C-96.96773497 68.06320376 -95.30934146 73.63142975 -92.9375 79.4375 C-92.504375 80.53771484 -92.504375 80.53771484 -92.0625 81.66015625 C-86.40412037 94.36624979 -75.35388782 103.67992681 -62.625 108.875 C-47.57325009 113.58685214 -32.98668002 113.48251369 -18.5625 106.75 C-4.14807767 98.75282388 4.73781779 87.688885 10.12402344 72.28686523 C11.37534587 68.76105259 11.83537379 67.58891747 15.0625 65.4375 C18.74972891 64.9565571 20.62324794 65.20832501 23.9375 66.9375 C26.29194839 69.70743928 26.79197702 71.3558476 26.54296875 74.9765625 C23.30347284 91.56910252 12.37770074 106.66184476 -1.3125 116.25 C-19.25933866 128.31343976 -38.86735143 131.38282134 -59.9375 127.4375 C-77.58002837 123.06867485 -92.72630042 112.48361857 -102.9375 97.4375 C-113.84128536 79.25974833 -117.44373949 59.07553265 -112.3125 38.25 C-109.00316743 27.78786441 -104.20548355 18.66294246 -96.9375 10.4375 C-96.21949219 9.61378906 -95.50148437 8.79007813 -94.76171875 7.94140625 C-70.53605921 -18.10811637 -28.27096196 -21.38921464 0 0 Z " fill="#000000" transform="translate(298.9375,130.5625)"/>
<path d="M0 0 C1.08632469 -0.00788544 1.08632469 -0.00788544 2.19459534 -0.01593018 C4.57852005 -0.02908874 6.96177211 -0.02040721 9.34570312 -0.01025391 C11.00809863 -0.01227584 12.67049327 -0.01518828 14.33288574 -0.01895142 C17.812993 -0.02336914 21.2928689 -0.01696158 24.77294922 -0.00292969 C29.22848681 0.014162 33.68348223 0.00431784 38.13899994 -0.01364708 C41.57057767 -0.02449989 45.00202737 -0.02103173 48.43360901 -0.0132637 C50.07621831 -0.01126583 51.71883932 -0.01370645 53.36143494 -0.02070236 C55.65923755 -0.02834167 57.95616838 -0.01667887 60.25390625 0 C62.21318054 0.00358017 62.21318054 0.00358017 64.21203613 0.00723267 C68.97036903 0.5380483 71.39725357 1.88459955 74.41519165 5.57470703 C75.9822375 9.21308543 76.04703196 12.51227143 76.01513672 16.40380859 C76.02039368 17.19630005 76.02565063 17.9887915 76.03106689 18.80529785 C76.04423577 21.41646217 76.03554002 24.02701341 76.02539062 26.63818359 C76.02741226 28.45752072 76.03032444 30.27685705 76.03408813 32.09619141 C76.03850727 35.90584034 76.03209367 39.715278 76.01806641 43.52490234 C76.00097475 48.40416278 76.01081814 53.28292813 76.0287838 58.16217041 C76.03963274 61.91800658 76.0361702 65.6737257 76.02840042 69.42956543 C76.02640149 71.22847553 76.02884692 73.02739632 76.03583908 74.82629395 C76.04347187 77.34200122 76.03182416 79.85691063 76.01513672 82.37255859 C76.02120941 83.11348755 76.0272821 83.8544165 76.03353882 84.61779785 C75.97912368 89.0536678 75.45794542 91.92665935 72.62695312 95.38818359 C68.6036952 98.61924062 65.32699203 98.76709717 60.25390625 98.77636719 C59.52968979 98.78162415 58.80547333 98.7868811 58.05931091 98.79229736 C55.6753862 98.80545593 53.29213414 98.79677439 50.90820312 98.78662109 C49.24580762 98.78864303 47.58341298 98.79155547 45.92102051 98.7953186 C42.44091325 98.79973633 38.96103735 98.79332877 35.48095703 98.77929688 C31.02541944 98.76220519 26.57042402 98.77204935 22.11490631 98.79001427 C18.68332858 98.80086708 15.25187888 98.79739892 11.82029724 98.78963089 C10.17768794 98.78763302 8.53506693 98.79007364 6.89247131 98.79706955 C4.5946687 98.80470886 2.29773787 98.79304606 0 98.77636719 C-1.95927429 98.77278702 -1.95927429 98.77278702 -3.95812988 98.76913452 C-8.71646278 98.23831889 -11.14334732 96.89176763 -14.1612854 93.20166016 C-15.72833125 89.56328176 -15.79312571 86.26409576 -15.76123047 82.37255859 C-15.76648743 81.58006714 -15.77174438 80.78757568 -15.77716064 79.97106934 C-15.79032952 77.35990501 -15.78163377 74.74935377 -15.77148438 72.13818359 C-15.77350601 70.31884647 -15.77641819 68.49951014 -15.78018188 66.68017578 C-15.78460102 62.87052685 -15.77818742 59.06108919 -15.76416016 55.25146484 C-15.7470685 50.37220441 -15.75691189 45.49343906 -15.77487755 40.61419678 C-15.78572649 36.8583606 -15.78226395 33.10264149 -15.77449417 29.34680176 C-15.77249524 27.54789165 -15.77494067 25.74897087 -15.78193283 23.95007324 C-15.78956562 21.43436597 -15.77791791 18.91945656 -15.76123047 16.40380859 C-15.76730316 15.66287964 -15.77337585 14.92195068 -15.77963257 14.15856934 C-15.72521743 9.72269939 -15.20403917 6.84970784 -12.37304688 3.38818359 C-8.34978895 0.15712657 -5.07308578 0.00927002 0 0 Z M0.62695312 16.38818359 C0.62695312 38.16818359 0.62695312 59.94818359 0.62695312 82.38818359 C20.09695312 82.38818359 39.56695312 82.38818359 59.62695312 82.38818359 C59.62695312 60.60818359 59.62695312 38.82818359 59.62695312 16.38818359 C40.15695312 16.38818359 20.68695313 16.38818359 0.62695312 16.38818359 Z " fill="#000000" transform="translate(229.373046875,356.61181640625)"/>
<path d="M0 0 C1.53684448 -0.01418472 1.53684448 -0.01418472 3.10473633 -0.02865601 C4.20068115 -0.02258331 5.29662598 -0.01651062 6.42578125 -0.01025391 C7.56104248 -0.01312408 8.69630371 -0.01599426 9.8659668 -0.01895142 C12.26318868 -0.02099043 14.66042725 -0.015472 17.05761719 -0.00292969 C20.72498816 0.0131254 24.39125702 -0.00278482 28.05859375 -0.02197266 C30.38932535 -0.0199902 32.72005626 -0.01614647 35.05078125 -0.01025391 C36.69469849 -0.01936295 36.69469849 -0.01936295 38.37182617 -0.02865601 C39.39638916 -0.01919952 40.42095215 -0.00974304 41.4765625 0 C42.37415283 0.00238678 43.27174316 0.00477356 44.1965332 0.00723267 C48.27158339 0.61799114 50.92661751 2.40647176 53.52587891 5.55029297 C55.13094142 9.30728987 55.1684748 12.77916311 55.13671875 16.79443359 C55.13958893 17.59675415 55.14245911 18.39907471 55.14541626 19.22570801 C55.14745163 20.91675526 55.14195865 22.60782633 55.12939453 24.29882812 C55.1133326 26.87993257 55.12926029 29.45947131 55.1484375 32.04052734 C55.14645497 33.6876662 55.1426111 35.33480408 55.13671875 36.98193359 C55.14279144 37.74977173 55.14886414 38.51760986 55.15512085 39.30871582 C55.09586975 43.846631 54.6595944 46.85483898 51.73828125 50.38818359 C48.20398316 52.88210679 45.78762001 53.76490367 41.4765625 53.77636719 C40.45199951 53.78582367 39.42743652 53.79528015 38.37182617 53.80502319 C37.27588135 53.7989505 36.17993652 53.79287781 35.05078125 53.78662109 C33.3478894 53.79092636 33.3478894 53.79092636 31.6105957 53.7953186 C29.21337382 53.79735762 26.81613525 53.79183919 24.41894531 53.77929688 C20.75157434 53.76324179 17.08530548 53.77915201 13.41796875 53.79833984 C11.08723715 53.79635738 8.75650624 53.79251365 6.42578125 53.78662109 C5.32983643 53.79269379 4.2338916 53.79876648 3.10473633 53.80502319 C2.08017334 53.79556671 1.05561035 53.78611023 0 53.77636719 C-0.89759033 53.77398041 -1.79518066 53.77159363 -2.7199707 53.76913452 C-6.79502089 53.15837605 -9.45005501 51.36989543 -12.04931641 48.22607422 C-13.65437892 44.46907732 -13.6919123 40.99720408 -13.66015625 36.98193359 C-13.66302643 36.17961304 -13.66589661 35.37729248 -13.66885376 34.55065918 C-13.67088913 32.85961193 -13.66539615 31.16854086 -13.65283203 29.47753906 C-13.6367701 26.89643462 -13.65269779 24.31689588 -13.671875 21.73583984 C-13.66989247 20.08870099 -13.6660486 18.4415631 -13.66015625 16.79443359 C-13.66622894 16.02659546 -13.67230164 15.25875732 -13.67855835 14.46765137 C-13.61930725 9.92973619 -13.1830319 6.92152821 -10.26171875 3.38818359 C-6.72742066 0.8942604 -4.31105751 0.01146352 0 0 Z M2.73828125 16.38818359 C2.73828125 23.31818359 2.73828125 30.24818359 2.73828125 37.38818359 C14.61828125 37.38818359 26.49828125 37.38818359 38.73828125 37.38818359 C38.73828125 30.45818359 38.73828125 23.52818359 38.73828125 16.38818359 C26.85828125 16.38818359 14.97828125 16.38818359 2.73828125 16.38818359 Z " fill="#000000" transform="translate(325.26171875,356.61181640625)"/>
<path d="M0 0 C5.76900275 3.3204228 9.39684389 7.28811747 11.5 13.64453125 C13.20888655 21.28111803 12.58023829 27.36884317 8.875 34.25 C4.02167627 40.18184012 -0.77685956 43.64233854 -8.375 45 C-15.86384217 45.36270746 -21.62939841 43.87070317 -27.375 39 C-32.9179219 33.61261927 -35.22252502 27.7069172 -35.375 20 C-34.83387039 13.12164144 -32.3800169 7.77657214 -27.375 3 C-19.04760529 -3.10478047 -9.46854232 -4.17980697 0 0 Z M-16.75 15.5625 C-18.9746142 18.8994213 -18.87530235 21.06905293 -18.375 25 C-16.84109879 27.42194927 -15.68091626 27.88729401 -13 28.875 C-9.60360594 29.03673305 -8.08939577 27.96039694 -5.375 26 C-4.00502255 24.84254513 -4.00502255 24.84254513 -4.0625 21.6875 C-4.07409799 18.02668938 -4.07409799 18.02668938 -6 15.5625 C-9.90167311 12.99560979 -12.84832689 12.99560979 -16.75 15.5625 Z " fill="#000000" transform="translate(267.375,167)"/>
<path d="M0 0 C5.17752295 4.56728083 8.52416365 9.25278871 9.40625 16.19921875 C9.63258796 24.62087687 8.74713411 30.59812909 3 37 C-3.76538756 42.59894143 -10.38667809 43.71238001 -19 43 C-24.63727793 41.75921266 -28.29542978 39.50555837 -32 35 C-32.46664062 34.46890625 -32.93328125 33.9378125 -33.4140625 33.390625 C-38.14750998 27.20276628 -37.92848783 20.49797723 -37 13 C-35.31824433 6.74782597 -31.34831595 2.49655686 -26 -1 C-17.18518286 -5.68121551 -8.53089863 -4.97982538 0 0 Z M-18.75 13.5625 C-21.31301244 15.88827139 -21.31301244 15.88827139 -21.5625 19.5 C-21.25025244 22.99047482 -21.25025244 22.99047482 -19.375 25.4375 C-16.28314769 27.47161336 -14.63632575 27.60605429 -11 27 C-8.47993156 25.56338689 -8.47993156 25.56338689 -7 23 C-6.25 19.5 -6.25 19.5 -7 16 C-9.12685929 13.4482714 -9.12685929 13.4482714 -12 12 C-15.9475115 11.67066039 -15.9475115 11.67066039 -18.75 13.5625 Z " fill="#000000" transform="translate(143,385)"/>
<path d="M0 0 C5.00186675 2.66692453 8.26576726 6.74522156 11.078125 11.56640625 C12.74551512 18.23596674 12.53938059 24.45292765 9.109375 30.4921875 C6.10594047 34.56952449 2.58068793 37.71138527 -2.234375 39.31640625 C-9.94211327 39.95177386 -16.03457097 40.22458444 -22.234375 35.31640625 C-27.06731401 30.58712276 -29.29127319 26.22508955 -29.609375 19.50390625 C-29.45524839 13.40230588 -27.75570263 8.94660939 -23.515625 4.5234375 C-16.93439376 -1.34668613 -8.56499835 -2.62041034 0 0 Z M-13.234375 17.31640625 C-12.94454231 20.62324091 -12.94454231 20.62324091 -11.234375 23.31640625 C-8.77627502 23.56648355 -8.77627502 23.56648355 -6.234375 23.31640625 C-5.574375 22.65640625 -4.914375 21.99640625 -4.234375 21.31640625 C-4.52420769 18.00957159 -4.52420769 18.00957159 -6.234375 15.31640625 C-10.195543 14.92550292 -10.195543 14.92550292 -13.234375 17.31640625 Z " fill="#000000" transform="translate(419.234375,451.68359375)"/>
<path d="M0 0 C5.00186675 2.66692453 8.26576726 6.74522156 11.078125 11.56640625 C12.74551512 18.23596674 12.53938059 24.45292765 9.109375 30.4921875 C6.10594047 34.56952449 2.58068793 37.71138527 -2.234375 39.31640625 C-9.94211327 39.95177386 -16.03457097 40.22458444 -22.234375 35.31640625 C-27.06731401 30.58712276 -29.29127319 26.22508955 -29.609375 19.50390625 C-29.45524839 13.40230588 -27.75570263 8.94660939 -23.515625 4.5234375 C-16.93439376 -1.34668613 -8.56499835 -2.62041034 0 0 Z M-13.234375 17.31640625 C-12.94454231 20.62324091 -12.94454231 20.62324091 -11.234375 23.31640625 C-8.77627502 23.56648355 -8.77627502 23.56648355 -6.234375 23.31640625 C-5.574375 22.65640625 -4.914375 21.99640625 -4.234375 21.31640625 C-4.52420769 18.00957159 -4.52420769 18.00957159 -6.234375 15.31640625 C-10.195543 14.92550292 -10.195543 14.92550292 -13.234375 17.31640625 Z " fill="#000000" transform="translate(110.234375,451.68359375)"/>
<path d="M0 0 C5.00186675 2.66692453 8.26576726 6.74522156 11.078125 11.56640625 C12.74551512 18.23596674 12.53938059 24.45292765 9.109375 30.4921875 C6.10594047 34.56952449 2.58068793 37.71138527 -2.234375 39.31640625 C-9.94211327 39.95177386 -16.03457097 40.22458444 -22.234375 35.31640625 C-27.06731401 30.58712276 -29.29127319 26.22508955 -29.609375 19.50390625 C-29.45524839 13.40230588 -27.75570263 8.94660939 -23.515625 4.5234375 C-16.93439376 -1.34668613 -8.56499835 -2.62041034 0 0 Z M-13.234375 17.31640625 C-12.94454231 20.62324091 -12.94454231 20.62324091 -11.234375 23.31640625 C-8.77627502 23.56648355 -8.77627502 23.56648355 -6.234375 23.31640625 C-5.574375 22.65640625 -4.914375 21.99640625 -4.234375 21.31640625 C-4.52420769 18.00957159 -4.52420769 18.00957159 -6.234375 15.31640625 C-10.195543 14.92550292 -10.195543 14.92550292 -13.234375 17.31640625 Z " fill="#000000" transform="translate(419.234375,274.68359375)"/>
<path d="M0 0 C5.00186675 2.66692453 8.26576726 6.74522156 11.078125 11.56640625 C12.74551512 18.23596674 12.53938059 24.45292765 9.109375 30.4921875 C6.10594047 34.56952449 2.58068793 37.71138527 -2.234375 39.31640625 C-9.94211327 39.95177386 -16.03457097 40.22458444 -22.234375 35.31640625 C-27.06731401 30.58712276 -29.29127319 26.22508955 -29.609375 19.50390625 C-29.45524839 13.40230588 -27.75570263 8.94660939 -23.515625 4.5234375 C-16.93439376 -1.34668613 -8.56499835 -2.62041034 0 0 Z M-13.234375 17.31640625 C-12.94454231 20.62324091 -12.94454231 20.62324091 -11.234375 23.31640625 C-8.77627502 23.56648355 -8.77627502 23.56648355 -6.234375 23.31640625 C-5.574375 22.65640625 -4.914375 21.99640625 -4.234375 21.31640625 C-4.52420769 18.00957159 -4.52420769 18.00957159 -6.234375 15.31640625 C-10.195543 14.92550292 -10.195543 14.92550292 -13.234375 17.31640625 Z " fill="#000000" transform="translate(110.234375,274.68359375)"/>
<path d="M0 0 C5.00186675 2.66692453 8.26576726 6.74522156 11.078125 11.56640625 C12.7421801 18.22262667 12.57086809 24.49091814 9.08203125 30.49609375 C5.52364075 35.41659812 1.84690057 38.35508398 -4.109375 39.81640625 C-10.18888724 40.69148756 -15.246256 40.25972839 -20.46875 36.86328125 C-25.59820296 32.70730112 -28.67121613 28.66484817 -29.54296875 21.93359375 C-29.84738038 15.90070865 -28.84274518 11.21497856 -25.234375 6.31640625 C-18.35430014 -0.86076275 -9.77348209 -2.99013875 0 0 Z M-13.234375 17.31640625 C-13.22514798 19.86354029 -13.22514798 19.86354029 -12.234375 22.31640625 C-10.26679227 23.67660776 -10.26679227 23.67660776 -8.234375 24.31640625 C-6.914375 23.32640625 -5.594375 22.33640625 -4.234375 21.31640625 C-4.61341708 18.02564629 -4.61341708 18.02564629 -6.234375 15.31640625 C-10.195543 14.92550292 -10.195543 14.92550292 -13.234375 17.31640625 Z " fill="#000000" transform="translate(419.234375,21.68359375)"/>
<path d="M0 0 C5.00186675 2.66692453 8.26576726 6.74522156 11.078125 11.56640625 C12.7421801 18.22262667 12.57086809 24.49091814 9.08203125 30.49609375 C5.52364075 35.41659812 1.84690057 38.35508398 -4.109375 39.81640625 C-10.18888724 40.69148756 -15.246256 40.25972839 -20.46875 36.86328125 C-25.59820296 32.70730112 -28.67121613 28.66484817 -29.54296875 21.93359375 C-29.84738038 15.90070865 -28.84274518 11.21497856 -25.234375 6.31640625 C-18.35430014 -0.86076275 -9.77348209 -2.99013875 0 0 Z M-13.234375 17.31640625 C-13.22514798 19.86354029 -13.22514798 19.86354029 -12.234375 22.31640625 C-10.26679227 23.67660776 -10.26679227 23.67660776 -8.234375 24.31640625 C-6.914375 23.32640625 -5.594375 22.33640625 -4.234375 21.31640625 C-4.61341708 18.02564629 -4.61341708 18.02564629 -6.234375 15.31640625 C-10.195543 14.92550292 -10.195543 14.92550292 -13.234375 17.31640625 Z " fill="#000000" transform="translate(110.234375,21.68359375)"/>
<path d="M0 0 C2.54682014 1.66031638 3.56964652 2.41088755 5 5 C5.75544612 9.34189977 5.69731338 13.60334638 5.625 18 C5.65400391 19.7634375 5.65400391 19.7634375 5.68359375 21.5625 C5.62921857 31.13253183 5.62921857 31.13253183 2.6484375 34.2734375 C-0.64303542 36.41920598 -2.14760379 36.80258254 -6 36 C-8.54682014 34.33968362 -9.56964652 33.58911245 -11 31 C-11.75544612 26.65810023 -11.69731338 22.39665362 -11.625 18 C-11.64433594 16.824375 -11.66367187 15.64875 -11.68359375 14.4375 C-11.62921857 4.86746817 -11.62921857 4.86746817 -8.6484375 1.7265625 C-5.35696458 -0.41920598 -3.85239621 -0.80258254 0 0 Z " fill="#000000" transform="translate(343,419)"/>
<path d="M0 0 C2.54682014 1.66031638 3.56964652 2.41088755 5 5 C5.75544612 9.34189977 5.69731338 13.60334638 5.625 18 C5.65400391 19.7634375 5.65400391 19.7634375 5.68359375 21.5625 C5.62921857 31.13253183 5.62921857 31.13253183 2.6484375 34.2734375 C-0.64303542 36.41920598 -2.14760379 36.80258254 -6 36 C-8.54682014 34.33968362 -9.56964652 33.58911245 -11 31 C-11.75544612 26.65810023 -11.69731338 22.39665362 -11.625 18 C-11.64433594 16.824375 -11.66367187 15.64875 -11.68359375 14.4375 C-11.62921857 4.86746817 -11.62921857 4.86746817 -8.6484375 1.7265625 C-5.35696458 -0.41920598 -3.85239621 -0.80258254 0 0 Z " fill="#000000" transform="translate(323,419)"/>
<path d="M0 0 C2.875 1.8125 2.875 1.8125 5 5 C6.00709788 10.41721198 5.96584744 14.55122884 2.875 19.1875 C-0.54984225 21.34663968 -2.03371841 21.82630866 -6 21 C-8.875 19.1875 -8.875 19.1875 -11 16 C-12.00709788 10.58278802 -11.96584744 6.44877116 -8.875 1.8125 C-5.45015775 -0.34663968 -3.96628159 -0.82630866 0 0 Z " fill="#000000" transform="translate(363,419)"/>
</svg>
