<?xml version="1.0" encoding="UTF-8"?>
<svg version="1.1" xmlns="http://www.w3.org/2000/svg" width="32" height="32">
<path d="M0 0 C1.14984375 -0.00386719 2.2996875 -0.00773438 3.484375 -0.01171875 C4.68578125 -0.00011719 5.8871875 0.01148437 7.125 0.0234375 C8.32640625 0.01183594 9.5278125 0.00023438 10.765625 -0.01171875 C12.49039062 -0.00591797 12.49039062 -0.00591797 14.25 0 C15.83167969 0.00507568 15.83167969 0.00507568 17.4453125 0.01025391 C20.125 0.3984375 20.125 0.3984375 21.96728516 1.55615234 C23.61461838 4.17757294 23.51354594 6.1910385 23.5234375 9.2734375 C23.52923828 10.99820312 23.52923828 10.99820312 23.53515625 12.7578125 C23.52355469 13.95921875 23.51195312 15.160625 23.5 16.3984375 C23.51160156 17.59984375 23.52320313 18.80125 23.53515625 20.0390625 C23.53128906 21.18890625 23.52742188 22.33875 23.5234375 23.5234375 C23.52005371 24.57789062 23.51666992 25.63234375 23.51318359 26.71875 C23.125 29.3984375 23.125 29.3984375 21.96728516 31.24072266 C19.34586456 32.88805588 17.332399 32.78698344 14.25 32.796875 C13.10015625 32.80074219 11.9503125 32.80460937 10.765625 32.80859375 C9.56421875 32.79699219 8.3628125 32.78539062 7.125 32.7734375 C5.92359375 32.78503906 4.7221875 32.79664063 3.484375 32.80859375 C1.75960938 32.80279297 1.75960938 32.80279297 0 32.796875 C-1.05445313 32.79349121 -2.10890625 32.79010742 -3.1953125 32.78662109 C-5.875 32.3984375 -5.875 32.3984375 -7.71728516 31.24072266 C-9.36461838 28.61930206 -9.26354594 26.6058365 -9.2734375 23.5234375 C-9.27730469 22.37359375 -9.28117188 21.22375 -9.28515625 20.0390625 C-9.27355469 18.83765625 -9.26195312 17.63625 -9.25 16.3984375 C-9.26160156 15.19703125 -9.27320313 13.995625 -9.28515625 12.7578125 C-9.28128906 11.60796875 -9.27742187 10.458125 -9.2734375 9.2734375 C-9.27005371 8.21898437 -9.26666992 7.16453125 -9.26318359 6.078125 C-8.875 3.3984375 -8.875 3.3984375 -7.71728516 1.55615234 C-5.09586456 -0.09118088 -3.082399 0.00989156 0 0 Z M-4.875 6.3984375 C-5.18484531 8.49657131 -5.18484531 8.49657131 -5.140625 10.8984375 C-5.14320312 11.7853125 -5.14578125 12.6721875 -5.1484375 13.5859375 C-5.14070312 14.5140625 -5.13296875 15.4421875 -5.125 16.3984375 C-5.13273438 17.3265625 -5.14046875 18.2546875 -5.1484375 19.2109375 C-5.14585938 20.0978125 -5.14328125 20.9846875 -5.140625 21.8984375 C-5.13836914 22.713125 -5.13611328 23.5278125 -5.13378906 24.3671875 C-5.05674293 26.62474201 -5.05674293 26.62474201 -2.875 28.3984375 C-0.77686619 28.70828281 -0.77686619 28.70828281 1.625 28.6640625 C2.9553125 28.66792969 2.9553125 28.66792969 4.3125 28.671875 C5.7046875 28.66027344 5.7046875 28.66027344 7.125 28.6484375 C8.053125 28.65617187 8.98125 28.66390625 9.9375 28.671875 C10.824375 28.66929688 11.71125 28.66671875 12.625 28.6640625 C13.84703125 28.66067871 13.84703125 28.66067871 15.09375 28.65722656 C17.35130451 28.58018043 17.35130451 28.58018043 19.125 26.3984375 C19.40154388 24.46162614 19.40154388 24.46162614 19.3203125 22.265625 C19.31386719 21.45996094 19.30742187 20.65429688 19.30078125 19.82421875 C19.28402344 18.98246094 19.26726563 18.14070313 19.25 17.2734375 C19.24097656 16.42394531 19.23195313 15.57445312 19.22265625 14.69921875 C19.19905647 12.59883866 19.16318483 10.49860306 19.125 8.3984375 C18.135 9.0584375 17.145 9.7184375 16.125 10.3984375 C15.95059535 12.67419646 15.95059535 12.67419646 16.25 15.2109375 C16.35092488 19.08533151 16.29447607 20.13363114 14.125 23.5234375 C10.03868338 26.07738539 7.89244435 25.85980308 3.125 25.3984375 C2.135 25.0684375 1.145 24.7384375 0.125 24.3984375 C0.125 23.4084375 0.125 22.4184375 0.125 21.3984375 C-0.535 21.0684375 -1.195 20.7384375 -1.875 20.3984375 C-2.47201493 13.35366138 -2.47201493 13.35366138 0 9.3984375 C3.91742964 6.89128253 6.38879407 7.09462226 10.91796875 7.515625 C11.64628906 7.47695312 12.37460937 7.43828125 13.125 7.3984375 C13.785 6.4084375 14.445 5.4184375 15.125 4.3984375 C12.16642591 4.34464524 9.20882279 4.30486657 6.25 4.2734375 C5.40824219 4.25667969 4.56648437 4.23992188 3.69921875 4.22265625 C2.49072266 4.21298828 2.49072266 4.21298828 1.2578125 4.203125 C0.51418457 4.19265137 -0.22944336 4.18217773 -0.99560547 4.17138672 C-3.11990235 4.2318778 -3.11990235 4.2318778 -4.875 6.3984375 Z M-0.875 13.3984375 C-1.70833333 16.3984375 -1.70833333 16.3984375 -0.875 19.3984375 C1.58094125 22.72118154 3.0506644 24.17461758 7.125 25.0234375 C11.1993356 24.17461758 12.66905875 22.72118154 15.125 19.3984375 C15.95833333 16.3984375 15.95833333 16.3984375 15.125 13.3984375 C12.66905875 10.07569346 11.1993356 8.62225742 7.125 7.7734375 C3.0506644 8.62225742 1.58094125 10.07569346 -0.875 13.3984375 Z " fill="#000000" transform="translate(8.875,-0.3984375)"/>
<path d="M0 0 C1.9375 1.6875 1.9375 1.6875 3 4 C3 7.0625 3 7.0625 2 10 C-0.1875 12 -0.1875 12 -3 13 C-6.1875 12.5625 -6.1875 12.5625 -9 11 C-10.5625 8.1875 -10.5625 8.1875 -11 5 C-8.40393546 -0.84114522 -6.07514654 -1.61177357 0 0 Z M-7.25 2.9375 C-8.11625 3.9584375 -8.11625 3.9584375 -9 5 C-7.94525335 8.69460876 -7.94525335 8.69460876 -5.125 11.0625 C-2.77383252 11.21665306 -2.77383252 11.21665306 -0.75 9.0625 C-0.1725 8.381875 0.405 7.70125 1 7 C-0.05474665 3.30539124 -0.05474665 3.30539124 -2.875 0.9375 C-5.22616748 0.78334694 -5.22616748 0.78334694 -7.25 2.9375 Z " fill="#000000" transform="translate(20,10)"/>
</svg>
