<?xml version="1.0" encoding="UTF-8"?>
<svg version="1.1" xmlns="http://www.w3.org/2000/svg" width="32" height="32">
<path d="M0 0 C11.53245501 -0.27458226 11.53245501 -0.27458226 15 2 C16.37252731 4.74505463 16.13229255 7.00327412 16.125 10.0625 C16.12886719 11.68865234 16.12886719 11.68865234 16.1328125 13.34765625 C16 16 16 16 15 17 C12.5 17.125 12.5 17.125 10 17 C7.95301586 14.95301586 8.29954307 10.69588759 8 8 C7.67 8 7.34 8 7 8 C6.67 10.97 6.34 13.94 6 17 C4.02 17 2.04 17 0 17 C0 11.39 0 5.78 0 0 Z M2 2 C2 6.29 2 10.58 2 15 C2.66 15 3.32 15 4 15 C4.144375 13.72125 4.28875 12.4425 4.4375 11.125 C4.70642746 8.74307106 4.92226346 7.15547309 6 5 C5.34 5 4.68 5 4 5 C4 4.01 4 3.02 4 2 C3.34 2 2.68 2 2 2 Z M7.375 3.5 C6.92125 3.995 6.4675 4.49 6 5 C7.32 5.33 8.64 5.66 10 6 C10.33 8.97 10.66 11.94 11 15 C11.99 15 12.98 15 14 15 C14.08121924 13.39667209 14.13929134 11.79215974 14.1875 10.1875 C14.22230469 9.29417969 14.25710937 8.40085937 14.29296875 7.48046875 C14.20712709 4.95213026 14.20712709 4.95213026 12.61328125 3.17578125 C10.27262819 1.46988156 9.50507882 1.53377339 7.375 3.5 Z " fill="#000000" transform="translate(12,11)"/>
<path d="M0 0 C10.56 0 21.12 0 32 0 C32 10.56 32 21.12 32 32 C21.44 32 10.88 32 0 32 C0 21.44 0 10.88 0 0 Z M1 3 C0.6884317 5.68526618 0.6884317 5.68526618 0.734375 8.8125 C0.73179688 9.97007813 0.72921875 11.12765625 0.7265625 12.3203125 C0.73429688 13.53460938 0.74203125 14.74890625 0.75 16 C0.74226562 17.21429687 0.73453125 18.42859375 0.7265625 19.6796875 C0.72914062 20.83726563 0.73171875 21.99484375 0.734375 23.1875 C0.73663086 24.25355469 0.73888672 25.31960937 0.74121094 26.41796875 C0.74119202 29.16323461 0.74119202 29.16323461 3 31 C5.68526618 31.3115683 5.68526618 31.3115683 8.8125 31.265625 C10.54886719 31.26949219 10.54886719 31.26949219 12.3203125 31.2734375 C13.53460938 31.26570313 14.74890625 31.25796875 16 31.25 C17.21429687 31.25773437 18.42859375 31.26546875 19.6796875 31.2734375 C20.83726563 31.27085938 21.99484375 31.26828125 23.1875 31.265625 C24.78658203 31.26224121 24.78658203 31.26224121 26.41796875 31.25878906 C29.16323461 31.25880798 29.16323461 31.25880798 31 29 C31.3115683 26.31473382 31.3115683 26.31473382 31.265625 23.1875 C31.26820312 22.02992187 31.27078125 20.87234375 31.2734375 19.6796875 C31.26570313 18.46539063 31.25796875 17.25109375 31.25 16 C31.25773437 14.78570312 31.26546875 13.57140625 31.2734375 12.3203125 C31.26957031 10.58394531 31.26957031 10.58394531 31.265625 8.8125 C31.26336914 7.74644531 31.26111328 6.68039062 31.25878906 5.58203125 C31.25880798 2.83676539 31.25880798 2.83676539 29 1 C26.31473382 0.6884317 26.31473382 0.6884317 23.1875 0.734375 C21.45113281 0.73050781 21.45113281 0.73050781 19.6796875 0.7265625 C18.46539063 0.73429688 17.25109375 0.74203125 16 0.75 C14.78570312 0.74226562 13.57140625 0.73453125 12.3203125 0.7265625 C11.16273437 0.72914062 10.00515625 0.73171875 8.8125 0.734375 C7.74644531 0.73663086 6.68039062 0.73888672 5.58203125 0.74121094 C2.83676539 0.74119202 2.83676539 0.74119202 1 3 Z " fill="#000000" transform="translate(0,0)"/>
<path d="M0 0 C0.99 0.33 1.98 0.66 3 1 C4 4 4 4 3 7 C3.38932856 9.14255793 3.38932856 9.14255793 4 11 C3.34 11 2.68 11 2 11 C2 10.34 2 9.68 2 9 C1.01 9 0.02 9 -1 9 C-1 13.29 -1 17.58 -1 22 C-0.01 22 0.98 22 2 22 C2 18.7 2 15.4 2 12 C2.66 12 3.32 12 4 12 C4.02687279 13.81242052 4.04633715 15.62495233 4.0625 17.4375 C4.07410156 18.44683594 4.08570313 19.45617187 4.09765625 20.49609375 C4 23 4 23 3 24 C0.5 24.125 0.5 24.125 -2 24 C-3.7462388 22.2537612 -3.13221151 20.00121676 -3.13671875 17.67773438 C-3.13285156 16.97970703 -3.12898437 16.28167969 -3.125 15.5625 C-3.12886719 14.86833984 -3.13273438 14.17417969 -3.13671875 13.45898438 C-3.12663994 8.25327988 -3.12663994 8.25327988 -2 6 C-2.33 5.01 -2.66 4.02 -3 3 C-2.01 2.01 -1.02 1.02 0 0 Z M0 2 C-0.33 2.66 -0.66 3.32 -1 4 C-0.34 4 0.32 4 1 4 C0.67 3.34 0.34 2.68 0 2 Z " fill="#000000" transform="translate(7,4)"/>
</svg>
