<?xml version="1.0" encoding="UTF-8"?>
<svg version="1.1" xmlns="http://www.w3.org/2000/svg" width="512" height="512">
<path d="M0 0 C6.48414996 0.01139909 12.96813562 0.00458828 19.45228004 -0.00688362 C205.52690582 -0.2848628 205.52690582 -0.2848628 236.71557617 30.26074219 C237.34206055 30.85113281 237.96854492 31.44152344 238.61401367 32.04980469 C259.10500772 53.09711532 261.15082941 88.76730596 262.71557617 116.26074219 C262.75610579 116.92342071 262.79663542 117.58609922 262.83839321 118.26885891 C263.73723334 133.05315579 263.87899694 147.80383899 263.88354492 162.61230469 C263.88677151 165.1254376 263.89013654 167.63857033 263.89363098 170.15170288 C263.89957929 175.39768914 263.90147552 180.64365905 263.90087891 185.88964844 C263.90079793 191.19534739 263.90770067 196.50095948 263.92138672 201.80664062 C263.99397992 230.35276169 264.06028687 258.79376082 261.71557617 287.26074219 C261.6024987 288.69701714 261.6024987 288.69701714 261.48713684 290.16230774 C260.09877575 307.59348463 255.98663106 324.33188482 248.71557617 340.26074219 C248.27729492 341.23269531 247.83901367 342.20464844 247.38745117 343.20605469 C238.70922582 360.71212997 221.9269754 372.74452049 203.87182617 379.29199219 C189.10977037 383.6337733 173.41007181 383.94613568 158.15307617 384.76074219 C156.99111725 384.82355377 155.82915833 384.88636536 154.63198853 384.95108032 C66.04463173 389.67801332 -22.66595835 389.30012931 -129.15942383 385.26074219 C-129.97940857 385.22499084 -130.79939331 385.1892395 -131.64422607 385.15240479 C-188.85026987 382.58935446 -188.85026987 382.58935446 -209.28442383 368.26074219 C-210.04110352 367.73738281 -210.7977832 367.21402344 -211.57739258 366.67480469 C-232.71876293 351.17355895 -240.92763788 327.01131878 -244.89819336 302.07714844 C-246.20832397 292.52362963 -246.73919018 282.88230943 -247.28442383 273.26074219 C-247.32495377 272.59712551 -247.3654837 271.93350883 -247.40724182 271.24978256 C-248.3057692 256.46639422 -248.44784488 241.71673307 -248.45239258 226.90917969 C-248.45561917 224.39604678 -248.4589842 221.88291404 -248.46247864 219.36978149 C-248.46842694 214.12379523 -248.47032317 208.87782533 -248.46972656 203.63183594 C-248.46964559 198.32613698 -248.47654832 193.02052489 -248.49023438 187.71484375 C-248.56283755 159.16474796 -248.59873057 130.73263042 -246.28442383 102.26074219 C-246.13784615 100.33138729 -245.99135433 98.40202588 -245.8449707 96.47265625 C-244.12583398 73.97821854 -237.67818973 45.95755532 -220.28442383 30.26074219 C-219.72368164 29.65875 -219.16293945 29.05675781 -218.58520508 28.43652344 C-201.22013897 9.94431307 -177.40112671 5.83556642 -153.28442383 4.26074219 C-152.07302734 4.18114258 -150.86163086 4.10154297 -149.61352539 4.01953125 C-99.80786156 0.8768709 -49.89314382 -0.0884266 0 0 Z M-197.53442383 50.63574219 C-213.77925976 67.96185088 -215.03877104 95.90414919 -216.28442383 118.26074219 C-216.38287185 119.75174838 -216.48294901 121.24264857 -216.58520508 122.73339844 C-219.80542028 172.46462141 -219.28013226 222.91924109 -216.15200806 272.63638306 C-216.03429834 274.51517056 -215.9206607 276.39421879 -215.81161499 278.27352905 C-214.6351282 298.16605183 -212.38351068 323.5777719 -197.28442383 338.26074219 C-185.17902498 348.21840899 -171.54917182 350.72172475 -156.36645508 352.28808594 C-155.53880142 352.37368774 -154.71114777 352.45928955 -153.8584137 352.54748535 C-145.48972474 353.38339258 -137.12245059 353.88544494 -128.72192383 354.26074219 C-127.86495911 354.29987732 -127.00799438 354.33901245 -126.12506104 354.3793335 C-39.33967078 358.2833889 47.6489282 358.80310567 156.02807617 353.82324219 C157.08917603 353.76784271 158.15027588 353.71244324 159.24353027 353.65536499 C179.24152379 352.58650944 198.01827061 351.52308355 213.68041992 337.58105469 C219.10760006 331.39344432 221.92939985 324.66176344 224.40307617 316.88574219 C224.69762695 316.00402344 224.99217773 315.12230469 225.2956543 314.21386719 C229.4155968 301.58554905 230.42174306 289.19372444 231.27807617 276.01074219 C231.37471054 274.55796371 231.37471054 274.55796371 231.47329712 273.07583618 C234.90512226 221.06581506 234.74759942 168.64615486 231.63809204 116.62164307 C231.52559861 114.71536391 231.41870069 112.80874382 231.31820679 110.90179443 C230.21440338 90.39642641 227.72197705 64.13585684 211.68432617 49.39355469 C184.3389323 26.95877732 135.01572519 33.31469482 101.85229492 32.18652344 C100.5804686 32.14324669 99.30864227 32.09996994 97.99827576 32.05538177 C70.50251885 31.14268001 43.01726466 30.95137294 15.5065918 31 C9.01457023 31.01139308 2.52271288 31.00459305 -3.96930313 30.99311638 C-106.27786052 23.05793135 -106.27786052 23.05793135 -197.53442383 50.63574219 Z " fill="#000000" transform="translate(248.284423828125,61.7392578125)"/>
<path d="M0 0 C9.1575942 5.26925063 18.41150522 10.31242546 27.75 15.25 C37.5754722 20.45033953 47.30999025 25.77112788 56.95532227 31.30102539 C62.442108 34.42948558 67.97341184 37.45442059 73.55859375 40.40234375 C74.23189728 40.75821564 74.90520081 41.11408752 75.59890747 41.48074341 C78.91094637 43.22921361 82.2273808 44.96853929 85.55078125 46.6953125 C103.72534891 56.20686059 103.72534891 56.20686059 109 65.4375 C110.99381859 72.9143197 109.96737037 78.89676437 106.72265625 85.828125 C101.05440739 92.7871632 91.59830178 96.62838234 83.8125 100.75 C82.08263249 101.67351493 80.35276879 102.59703709 78.62313843 103.52099609 C76.84080004 104.47240985 75.05743945 105.42188531 73.27392578 106.37109375 C67.75637488 109.31297208 62.25363415 112.28219424 56.75 115.25 C54.58080237 116.4181047 52.41153137 117.58607315 50.2421875 118.75390625 C45.93445638 121.07340401 41.62720264 123.39378484 37.3203125 125.71484375 C30.79832805 129.22926561 24.27488522 132.74096661 17.75 136.25 C16.8381897 136.7403775 16.8381897 136.7403775 15.90795898 137.24066162 C12.09706888 139.289893 8.28532177 141.33751873 4.47259521 143.3833313 C3.25872269 144.03485896 2.04505259 144.68676392 0.831604 145.33908081 C-1.91111894 146.81327161 -4.65656807 148.28186933 -7.40722656 149.74121094 C-9.14938573 150.66585398 -10.88692569 151.59934967 -12.61621094 152.54785156 C-19.16438941 156.04042002 -25.46102244 156.65434597 -32.62109375 154.5546875 C-38.16299841 152.06135421 -41.30295455 148.36527272 -44.5 143.25 C-46.88407061 136.89247839 -46.39795769 130.00930721 -46.39526367 123.32885742 C-46.39862228 122.13299515 -46.4019809 120.93713287 -46.40544128 119.70503235 C-46.41329653 116.4362826 -46.41661788 113.16757105 -46.41725707 109.89881301 C-46.4179697 107.85274406 -46.42010806 105.8066817 -46.42275429 103.7606144 C-46.43199605 96.6114828 -46.43609069 89.4623698 -46.43530273 82.31323242 C-46.43470243 75.66721674 -46.44524801 69.02128236 -46.4610464 62.37528723 C-46.47415703 56.6544746 -46.47948515 50.93368841 -46.47884732 45.21286088 C-46.47859335 41.80270259 -46.48138866 38.39261659 -46.49202538 34.98247337 C-46.50184795 31.17468948 -46.49893806 27.36711358 -46.49291992 23.55932617 C-46.49853943 22.44161835 -46.50415894 21.32391052 -46.50994873 20.17233276 C-46.47301407 10.95245616 -46.06670791 2.12024227 -39.25 -4.75 C-25.59371378 -14.82380754 -12.84742047 -7.51278755 0 0 Z M-15.25 28.25 C-15.25 57.95 -15.25 87.65 -15.25 118.25 C-2.14119296 111.71356257 -2.14119296 111.71356257 10.75 104.8125 C21.55694875 98.86441345 32.44508166 93.07485457 43.34570312 87.30102539 C44.64845907 86.61088056 45.9511938 85.92069569 47.25390625 85.23046875 C47.88116608 84.8981575 48.5084259 84.56584625 49.1546936 84.22346497 C55.36880088 80.92798871 61.56183444 77.5939074 67.75 74.25 C65.4306591 71.68330036 63.0653054 70.18371812 60.015625 68.5703125 C58.58452393 67.80593872 58.58452393 67.80593872 57.12451172 67.02612305 C56.09342285 66.48125244 55.06233398 65.93638184 54 65.375 C45.81243077 60.99926585 37.68359075 56.54631216 29.625 51.9375 C20.32961905 46.64018542 10.93724612 41.53856796 1.5 36.5 C0.83385681 36.1434433 0.16771362 35.7868866 -0.51861572 35.41952515 C-2.41195243 34.40704547 -4.30713748 33.39813035 -6.203125 32.390625 C-7.29786133 31.80829102 -8.39259766 31.22595703 -9.52050781 30.62597656 C-12.23732009 29.17385234 -12.23732009 29.17385234 -15.25 28.25 Z " fill="#000000" transform="translate(236.25,177.75)"/>
</svg>
